<svg width="1444" height="396" viewBox="0 0 1444 396" fill="none" xmlns="http://www.w3.org/2000/svg">
<rect width="1440" height="300" fill="#495567"/>
<mask id="mask0_0_3535" style="mask-type:luminance" maskUnits="userSpaceOnUse" x="0" y="0" width="1440" height="300">
<rect width="1440" height="300" fill="white"/>
</mask>
<g mask="url(#mask0_0_3535)">
<circle opacity="0.1" cx="173.5" cy="173.5" r="173.5" transform="matrix(-1 0 0 1 1603 150)" fill="#E5ECF4"/>
<circle opacity="0.1" cx="173.5" cy="173.5" r="173.5" transform="matrix(-1 0 0 1 1200 150)" stroke="#E5ECF4" stroke-width="15"/>
<circle opacity="0.1" cx="173.5" cy="173.5" r="173.5" transform="matrix(-1 0 0 1 797 150)" stroke="#E5ECF4" stroke-width="15"/>
</g>
<path d="M185.448 120.672C185.448 119.328 184.92 118.16 183.864 117.168C182.84 116.176 181.384 115.68 179.496 115.68C177.896 115.68 176.632 116.016 175.704 116.688C174.776 117.328 174.312 118.208 174.312 119.328C174.312 119.904 174.424 120.432 174.648 120.912C174.872 121.36 175.256 121.776 175.8 122.16C176.376 122.512 177.112 122.832 178.008 123.12C178.936 123.408 180.104 123.68 181.512 123.936C185.032 124.576 187.72 125.648 189.576 127.152C191.432 128.656 192.36 130.88 192.36 133.824V134.4C192.36 135.968 192.072 137.392 191.496 138.672C190.952 139.92 190.152 140.992 189.096 141.888C188.04 142.784 186.76 143.472 185.256 143.952C183.752 144.432 182.056 144.672 180.168 144.672C177.96 144.672 176.008 144.368 174.312 143.76C172.648 143.12 171.256 142.256 170.136 141.168C169.016 140.048 168.168 138.752 167.592 137.28C167.016 135.776 166.728 134.144 166.728 132.384V130.944H173.064V132.096C173.064 134.112 173.64 135.728 174.792 136.944C175.976 138.128 177.8 138.72 180.264 138.72C182.184 138.72 183.608 138.304 184.536 137.472C185.464 136.64 185.928 135.648 185.928 134.496C185.928 133.952 185.832 133.44 185.64 132.96C185.448 132.448 185.112 132 184.632 131.616C184.152 131.2 183.496 130.832 182.664 130.512C181.832 130.192 180.776 129.92 179.496 129.696C177.8 129.408 176.248 129.04 174.84 128.592C173.432 128.112 172.2 127.488 171.144 126.72C170.12 125.952 169.32 124.992 168.744 123.84C168.168 122.688 167.88 121.28 167.88 119.616V119.328C167.88 117.952 168.152 116.688 168.696 115.536C169.272 114.352 170.056 113.328 171.048 112.464C172.072 111.6 173.288 110.928 174.696 110.448C176.136 109.968 177.736 109.728 179.496 109.728C181.48 109.728 183.24 110.016 184.776 110.592C186.312 111.136 187.592 111.888 188.616 112.848C189.672 113.808 190.456 114.912 190.968 116.16C191.512 117.408 191.784 118.72 191.784 120.096V121.824H185.448V120.672ZM196.424 138.24H204.488V125.952H197V120.192H210.536V138.24H217.448V144H196.424V138.24ZM212.024 113.136C212.024 113.776 211.896 114.384 211.64 114.96C211.416 115.504 211.096 115.984 210.68 116.4C210.264 116.784 209.768 117.104 209.192 117.36C208.648 117.584 208.072 117.696 207.464 117.696C206.824 117.696 206.232 117.584 205.688 117.36C205.144 117.104 204.664 116.784 204.248 116.4C203.832 115.984 203.496 115.504 203.24 114.96C203.016 114.384 202.904 113.776 202.904 113.136C202.904 112.496 203.016 111.904 203.24 111.36C203.496 110.784 203.832 110.304 204.248 109.92C204.664 109.504 205.144 109.184 205.688 108.96C206.232 108.704 206.824 108.576 207.464 108.576C208.072 108.576 208.648 108.704 209.192 108.96C209.768 109.184 210.264 109.504 210.68 109.92C211.096 110.304 211.416 110.784 211.64 111.36C211.896 111.904 212.024 112.496 212.024 113.136ZM240.232 140.544H239.368C239.112 141.088 238.792 141.616 238.408 142.128C238.056 142.608 237.576 143.04 236.968 143.424C236.392 143.808 235.688 144.112 234.856 144.336C234.056 144.56 233.08 144.672 231.928 144.672C230.456 144.672 229.08 144.416 227.8 143.904C226.552 143.36 225.448 142.576 224.488 141.552C223.56 140.496 222.824 139.216 222.28 137.712C221.768 136.208 221.512 134.48 221.512 132.528V131.664C221.512 129.744 221.784 128.032 222.328 126.528C222.904 125.024 223.672 123.76 224.632 122.736C225.624 121.68 226.76 120.88 228.04 120.336C229.352 119.792 230.728 119.52 232.168 119.52C234.088 119.52 235.608 119.888 236.728 120.624C237.848 121.328 238.728 122.336 239.368 123.648H240.232V120.192H246.28V149.856C246.28 150.944 245.928 151.84 245.224 152.544C244.552 153.248 243.672 153.6 242.584 153.6H226.552V147.84H238.936C239.8 147.84 240.232 147.36 240.232 146.4V140.544ZM233.896 138.912C235.784 138.912 237.304 138.32 238.456 137.136C239.64 135.92 240.232 134.336 240.232 132.384V131.808C240.232 129.856 239.64 128.288 238.456 127.104C237.304 125.888 235.784 125.28 233.896 125.28C232.008 125.28 230.472 125.872 229.288 127.056C228.136 128.208 227.56 129.792 227.56 131.808V132.384C227.56 134.4 228.136 136 229.288 137.184C230.472 138.336 232.008 138.912 233.896 138.912ZM256.535 144H250.487V120.192H256.535V123.744H257.399C257.943 122.4 258.823 121.36 260.039 120.624C261.255 119.888 262.679 119.52 264.311 119.52C265.463 119.52 266.535 119.712 267.527 120.096C268.551 120.448 269.447 121.008 270.215 121.776C270.983 122.544 271.575 123.52 271.991 124.704C272.439 125.888 272.663 127.296 272.663 128.928V144H266.615V130.464C266.615 128.768 266.199 127.44 265.367 126.48C264.567 125.488 263.399 124.992 261.863 124.992C260.071 124.992 258.727 125.6 257.831 126.816C256.967 128 256.535 129.6 256.535 131.616V144ZM321.111 120.192H327.159V144H321.111V140.544H320.247C319.191 143.296 316.919 144.672 313.431 144.672C312.247 144.672 311.143 144.48 310.119 144.096C309.095 143.712 308.199 143.12 307.431 142.32C306.663 141.52 306.055 140.528 305.607 139.344C305.191 138.128 304.983 136.704 304.983 135.072V120.192H311.031V133.824C311.031 135.52 311.431 136.848 312.231 137.808C313.031 138.736 314.231 139.2 315.831 139.2C317.655 139.2 318.983 138.624 319.815 137.472C320.679 136.288 321.111 134.688 321.111 132.672V120.192ZM337.031 153.6H330.983V120.192H337.031V123.648H337.895C338.535 122.336 339.463 121.328 340.679 120.624C341.895 119.888 343.447 119.52 345.335 119.52C346.743 119.52 348.071 119.792 349.319 120.336C350.599 120.88 351.703 121.68 352.631 122.736C353.591 123.76 354.343 125.024 354.887 126.528C355.463 128.032 355.751 129.744 355.751 131.664V132.528C355.751 134.48 355.479 136.208 354.935 137.712C354.391 139.216 353.655 140.496 352.727 141.552C351.799 142.576 350.695 143.36 349.415 143.904C348.167 144.416 346.807 144.672 345.335 144.672C344.247 144.672 343.303 144.56 342.503 144.336C341.703 144.112 340.999 143.808 340.391 143.424C339.815 143.04 339.319 142.608 338.903 142.128C338.519 141.616 338.183 141.088 337.895 140.544H337.031V153.6ZM343.367 138.912C345.255 138.912 346.775 138.336 347.927 137.184C349.111 136 349.703 134.4 349.703 132.384V131.808C349.703 129.792 349.111 128.208 347.927 127.056C346.775 125.872 345.255 125.28 343.367 125.28C341.479 125.28 339.943 125.888 338.759 127.104C337.607 128.288 337.031 129.856 337.031 131.808V132.384C337.031 134.336 337.607 135.92 338.759 137.136C339.943 138.32 341.479 138.912 343.367 138.912ZM402.134 140.544C401.494 142.048 400.598 143.12 399.446 143.76C398.294 144.368 396.95 144.672 395.414 144.672C393.974 144.672 392.614 144.4 391.334 143.856C390.086 143.312 388.982 142.512 388.022 141.456C387.062 140.4 386.294 139.12 385.718 137.616C385.174 136.112 384.902 134.4 384.902 132.48V131.712C384.902 129.824 385.174 128.128 385.718 126.624C386.262 125.12 386.998 123.84 387.926 122.784C388.854 121.728 389.926 120.928 391.142 120.384C392.39 119.808 393.718 119.52 395.126 119.52C396.822 119.52 398.182 119.808 399.206 120.384C400.262 120.96 401.094 121.856 401.702 123.072H402.566V120.192H408.614V136.8C408.614 137.76 409.046 138.24 409.91 138.24H410.822V144H406.694C405.606 144 404.71 143.68 404.006 143.04C403.334 142.4 402.998 141.568 402.998 140.544H402.134ZM396.758 138.912C398.518 138.912 399.926 138.336 400.982 137.184C402.038 136 402.566 134.4 402.566 132.384V131.808C402.566 129.792 402.038 128.208 400.982 127.056C399.926 125.872 398.518 125.28 396.758 125.28C394.998 125.28 393.59 125.872 392.534 127.056C391.478 128.208 390.95 129.792 390.95 131.808V132.384C390.95 134.4 391.478 136 392.534 137.184C393.59 138.336 394.998 138.912 396.758 138.912ZM420.022 144H413.974V120.192H420.022V123.744H420.886C421.43 122.4 422.31 121.36 423.526 120.624C424.742 119.888 426.166 119.52 427.798 119.52C428.95 119.52 430.022 119.712 431.014 120.096C432.038 120.448 432.934 121.008 433.702 121.776C434.47 122.544 435.062 123.52 435.478 124.704C435.926 125.888 436.15 127.296 436.15 128.928V144H430.102V130.464C430.102 128.768 429.686 127.44 428.854 126.48C428.054 125.488 426.886 124.992 425.35 124.992C423.558 124.992 422.214 125.6 421.318 126.816C420.454 128 420.022 129.6 420.022 131.616V144ZM458.31 140.544H457.446C457.19 141.088 456.87 141.616 456.486 142.128C456.134 142.608 455.654 143.04 455.046 143.424C454.47 143.808 453.766 144.112 452.934 144.336C452.134 144.56 451.158 144.672 450.006 144.672C448.534 144.672 447.158 144.416 445.878 143.904C444.63 143.36 443.526 142.576 442.566 141.552C441.638 140.496 440.902 139.216 440.358 137.712C439.846 136.208 439.59 134.48 439.59 132.528V131.664C439.59 129.744 439.862 128.032 440.406 126.528C440.982 125.024 441.75 123.76 442.71 122.736C443.702 121.68 444.838 120.88 446.118 120.336C447.43 119.792 448.806 119.52 450.246 119.52C452.166 119.52 453.686 119.888 454.806 120.624C455.926 121.328 456.806 122.336 457.446 123.648H458.31V110.4H464.358V144H458.31V140.544ZM451.974 138.912C453.862 138.912 455.382 138.32 456.534 137.136C457.718 135.92 458.31 134.336 458.31 132.384V131.808C458.31 129.856 457.718 128.288 456.534 127.104C455.382 125.888 453.862 125.28 451.974 125.28C450.086 125.28 448.55 125.872 447.366 127.056C446.214 128.208 445.638 129.792 445.638 131.808V132.384C445.638 134.4 446.214 136 447.366 137.184C448.55 138.336 450.086 138.912 451.974 138.912ZM185.448 168.672C185.448 167.328 184.92 166.16 183.864 165.168C182.84 164.176 181.384 163.68 179.496 163.68C177.896 163.68 176.632 164.016 175.704 164.688C174.776 165.328 174.312 166.208 174.312 167.328C174.312 167.904 174.424 168.432 174.648 168.912C174.872 169.36 175.256 169.776 175.8 170.16C176.376 170.512 177.112 170.832 178.008 171.12C178.936 171.408 180.104 171.68 181.512 171.936C185.032 172.576 187.72 173.648 189.576 175.152C191.432 176.656 192.36 178.88 192.36 181.824V182.4C192.36 183.968 192.072 185.392 191.496 186.672C190.952 187.92 190.152 188.992 189.096 189.888C188.04 190.784 186.76 191.472 185.256 191.952C183.752 192.432 182.056 192.672 180.168 192.672C177.96 192.672 176.008 192.368 174.312 191.76C172.648 191.12 171.256 190.256 170.136 189.168C169.016 188.048 168.168 186.752 167.592 185.28C167.016 183.776 166.728 182.144 166.728 180.384V178.944H173.064V180.096C173.064 182.112 173.64 183.728 174.792 184.944C175.976 186.128 177.8 186.72 180.264 186.72C182.184 186.72 183.608 186.304 184.536 185.472C185.464 184.64 185.928 183.648 185.928 182.496C185.928 181.952 185.832 181.44 185.64 180.96C185.448 180.448 185.112 180 184.632 179.616C184.152 179.2 183.496 178.832 182.664 178.512C181.832 178.192 180.776 177.92 179.496 177.696C177.8 177.408 176.248 177.04 174.84 176.592C173.432 176.112 172.2 175.488 171.144 174.72C170.12 173.952 169.32 172.992 168.744 171.84C168.168 170.688 167.88 169.28 167.88 167.616V167.328C167.88 165.952 168.152 164.688 168.696 163.536C169.272 162.352 170.056 161.328 171.048 160.464C172.072 159.6 173.288 158.928 174.696 158.448C176.136 157.968 177.736 157.728 179.496 157.728C181.48 157.728 183.24 158.016 184.776 158.592C186.312 159.136 187.592 159.888 188.616 160.848C189.672 161.808 190.456 162.912 190.968 164.16C191.512 165.408 191.784 166.72 191.784 168.096V169.824H185.448V168.672ZM219.224 183.264C218.68 186.08 217.384 188.352 215.336 190.08C213.32 191.808 210.616 192.672 207.224 192.672C205.464 192.672 203.816 192.4 202.28 191.856C200.776 191.312 199.464 190.528 198.344 189.504C197.224 188.48 196.344 187.216 195.704 185.712C195.064 184.208 194.744 182.496 194.744 180.576V180C194.744 178.08 195.064 176.352 195.704 174.816C196.344 173.28 197.224 171.968 198.344 170.88C199.496 169.792 200.824 168.96 202.328 168.384C203.864 167.808 205.496 167.52 207.224 167.52C210.552 167.52 213.24 168.384 215.288 170.112C217.368 171.84 218.68 174.112 219.224 176.928L213.272 178.464C213.08 177.056 212.472 175.84 211.448 174.816C210.424 173.792 208.984 173.28 207.128 173.28C206.264 173.28 205.448 173.44 204.68 173.76C203.912 174.08 203.24 174.544 202.664 175.152C202.088 175.728 201.624 176.448 201.272 177.312C200.952 178.144 200.792 179.088 200.792 180.144V180.432C200.792 181.488 200.952 182.432 201.272 183.264C201.624 184.064 202.088 184.736 202.664 185.28C203.24 185.824 203.912 186.24 204.68 186.528C205.448 186.784 206.264 186.912 207.128 186.912C208.984 186.912 210.392 186.448 211.352 185.52C212.344 184.592 212.984 183.344 213.272 181.776L219.224 183.264ZM246.568 180.384C246.568 182.368 246.232 184.128 245.56 185.664C244.888 187.168 243.976 188.448 242.824 189.504C241.672 190.528 240.344 191.312 238.84 191.856C237.368 192.4 235.816 192.672 234.184 192.672C232.552 192.672 230.984 192.4 229.48 191.856C228.008 191.312 226.696 190.528 225.544 189.504C224.392 188.448 223.48 187.168 222.808 185.664C222.136 184.128 221.8 182.368 221.8 180.384V179.808C221.8 177.856 222.136 176.128 222.808 174.624C223.48 173.088 224.392 171.792 225.544 170.736C226.696 169.68 228.008 168.88 229.48 168.336C230.984 167.792 232.552 167.52 234.184 167.52C235.816 167.52 237.368 167.792 238.84 168.336C240.344 168.88 241.672 169.68 242.824 170.736C243.976 171.792 244.888 173.088 245.56 174.624C246.232 176.128 246.568 177.856 246.568 179.808V180.384ZM234.184 186.912C235.048 186.912 235.864 186.768 236.632 186.48C237.4 186.192 238.072 185.776 238.648 185.232C239.224 184.688 239.672 184.032 239.992 183.264C240.344 182.464 240.52 181.568 240.52 180.576V179.616C240.52 178.624 240.344 177.744 239.992 176.976C239.672 176.176 239.224 175.504 238.648 174.96C238.072 174.416 237.4 174 236.632 173.712C235.864 173.424 235.048 173.28 234.184 173.28C233.32 173.28 232.504 173.424 231.736 173.712C230.968 174 230.296 174.416 229.72 174.96C229.144 175.504 228.68 176.176 228.328 176.976C228.008 177.744 227.848 178.624 227.848 179.616V180.576C227.848 181.568 228.008 182.464 228.328 183.264C228.68 184.032 229.144 184.688 229.72 185.232C230.296 185.776 230.968 186.192 231.736 186.48C232.504 186.768 233.32 186.912 234.184 186.912ZM273.815 180.384C273.815 182.368 273.479 184.128 272.807 185.664C272.135 187.168 271.223 188.448 270.071 189.504C268.919 190.528 267.591 191.312 266.087 191.856C264.615 192.4 263.063 192.672 261.431 192.672C259.799 192.672 258.231 192.4 256.727 191.856C255.255 191.312 253.943 190.528 252.791 189.504C251.639 188.448 250.727 187.168 250.055 185.664C249.383 184.128 249.047 182.368 249.047 180.384V179.808C249.047 177.856 249.383 176.128 250.055 174.624C250.727 173.088 251.639 171.792 252.791 170.736C253.943 169.68 255.255 168.88 256.727 168.336C258.231 167.792 259.799 167.52 261.431 167.52C263.063 167.52 264.615 167.792 266.087 168.336C267.591 168.88 268.919 169.68 270.071 170.736C271.223 171.792 272.135 173.088 272.807 174.624C273.479 176.128 273.815 177.856 273.815 179.808V180.384ZM261.431 186.912C262.295 186.912 263.111 186.768 263.879 186.48C264.647 186.192 265.319 185.776 265.895 185.232C266.471 184.688 266.919 184.032 267.239 183.264C267.591 182.464 267.767 181.568 267.767 180.576V179.616C267.767 178.624 267.591 177.744 267.239 176.976C266.919 176.176 266.471 175.504 265.895 174.96C265.319 174.416 264.647 174 263.879 173.712C263.111 173.424 262.295 173.28 261.431 173.28C260.567 173.28 259.751 173.424 258.983 173.712C258.215 174 257.543 174.416 256.967 174.96C256.391 175.504 255.927 176.176 255.575 176.976C255.255 177.744 255.095 178.624 255.095 179.616V180.576C255.095 181.568 255.255 182.464 255.575 183.264C255.927 184.032 256.391 184.688 256.967 185.232C257.543 185.776 258.215 186.192 258.983 186.48C259.751 186.768 260.567 186.912 261.431 186.912ZM277.063 168.192H284.119V158.4H290.167V168.192H298.759V173.952H290.167V184.8C290.167 185.76 290.599 186.24 291.463 186.24H297.895V192H287.815C286.727 192 285.831 191.648 285.127 190.944C284.455 190.24 284.119 189.344 284.119 188.256V173.952H277.063V168.192ZM355.559 180.384C355.559 182.368 355.223 184.128 354.551 185.664C353.879 187.168 352.967 188.448 351.815 189.504C350.663 190.528 349.335 191.312 347.831 191.856C346.359 192.4 344.807 192.672 343.175 192.672C341.543 192.672 339.975 192.4 338.471 191.856C336.999 191.312 335.687 190.528 334.535 189.504C333.383 188.448 332.471 187.168 331.799 185.664C331.127 184.128 330.791 182.368 330.791 180.384V179.808C330.791 177.856 331.127 176.128 331.799 174.624C332.471 173.088 333.383 171.792 334.535 170.736C335.687 169.68 336.999 168.88 338.471 168.336C339.975 167.792 341.543 167.52 343.175 167.52C344.807 167.52 346.359 167.792 347.831 168.336C349.335 168.88 350.663 169.68 351.815 170.736C352.967 171.792 353.879 173.088 354.551 174.624C355.223 176.128 355.559 177.856 355.559 179.808V180.384ZM343.175 186.912C344.039 186.912 344.855 186.768 345.623 186.48C346.391 186.192 347.063 185.776 347.639 185.232C348.215 184.688 348.663 184.032 348.983 183.264C349.335 182.464 349.511 181.568 349.511 180.576V179.616C349.511 178.624 349.335 177.744 348.983 176.976C348.663 176.176 348.215 175.504 347.639 174.96C347.063 174.416 346.391 174 345.623 173.712C344.855 173.424 344.039 173.28 343.175 173.28C342.311 173.28 341.495 173.424 340.727 173.712C339.959 174 339.287 174.416 338.711 174.96C338.135 175.504 337.671 176.176 337.319 176.976C336.999 177.744 336.839 178.624 336.839 179.616V180.576C336.839 181.568 336.999 182.464 337.319 183.264C337.671 184.032 338.135 184.688 338.711 185.232C339.287 185.776 339.959 186.192 340.727 186.48C341.495 186.768 342.311 186.912 343.175 186.912ZM359.286 168.192H366.054V163.296C366.054 161.92 366.518 160.768 367.446 159.84C368.374 158.88 369.526 158.4 370.902 158.4H380.598V164.16H373.398C372.534 164.16 372.102 164.64 372.102 165.6V168.192H381.462V173.952H372.102V192H366.054V173.952H359.286V168.192ZM386.534 168.192H393.302V163.296C393.302 161.92 393.766 160.768 394.694 159.84C395.622 158.88 396.774 158.4 398.15 158.4H407.846V164.16H400.646C399.782 164.16 399.35 164.64 399.35 165.6V168.192H408.71V173.952H399.35V192H393.302V173.952H386.534V168.192ZM440.55 168.192H447.606V158.4H453.654V168.192H462.246V173.952H453.654V184.8C453.654 185.76 454.086 186.24 454.95 186.24H461.382V192H451.302C450.214 192 449.318 191.648 448.614 190.944C447.942 190.24 447.606 189.344 447.606 188.256V173.952H440.55V168.192ZM491.797 180.384C491.797 182.368 491.461 184.128 490.789 185.664C490.117 187.168 489.205 188.448 488.053 189.504C486.901 190.528 485.573 191.312 484.069 191.856C482.597 192.4 481.045 192.672 479.413 192.672C477.781 192.672 476.213 192.4 474.709 191.856C473.237 191.312 471.925 190.528 470.773 189.504C469.621 188.448 468.709 187.168 468.037 185.664C467.365 184.128 467.029 182.368 467.029 180.384V179.808C467.029 177.856 467.365 176.128 468.037 174.624C468.709 173.088 469.621 171.792 470.773 170.736C471.925 169.68 473.237 168.88 474.709 168.336C476.213 167.792 477.781 167.52 479.413 167.52C481.045 167.52 482.597 167.792 484.069 168.336C485.573 168.88 486.901 169.68 488.053 170.736C489.205 171.792 490.117 173.088 490.789 174.624C491.461 176.128 491.797 177.856 491.797 179.808V180.384ZM479.413 186.912C480.277 186.912 481.093 186.768 481.861 186.48C482.629 186.192 483.301 185.776 483.877 185.232C484.453 184.688 484.901 184.032 485.221 183.264C485.573 182.464 485.749 181.568 485.749 180.576V179.616C485.749 178.624 485.573 177.744 485.221 176.976C484.901 176.176 484.453 175.504 483.877 174.96C483.301 174.416 482.629 174 481.861 173.712C481.093 173.424 480.277 173.28 479.413 173.28C478.549 173.28 477.733 173.424 476.965 173.712C476.197 174 475.525 174.416 474.949 174.96C474.373 175.504 473.909 176.176 473.557 176.976C473.237 177.744 473.077 178.624 473.077 179.616V180.576C473.077 181.568 473.237 182.464 473.557 183.264C473.909 184.032 474.373 184.688 474.949 185.232C475.525 185.776 476.197 186.192 476.965 186.48C477.733 186.768 478.549 186.912 479.413 186.912ZM512.805 188.544H511.941C511.685 189.088 511.365 189.616 510.981 190.128C510.629 190.608 510.149 191.04 509.541 191.424C508.965 191.808 508.261 192.112 507.429 192.336C506.629 192.56 505.653 192.672 504.501 192.672C503.029 192.672 501.653 192.416 500.373 191.904C499.125 191.36 498.021 190.576 497.061 189.552C496.133 188.496 495.397 187.216 494.853 185.712C494.341 184.208 494.085 182.48 494.085 180.528V179.664C494.085 177.744 494.357 176.032 494.901 174.528C495.477 173.024 496.245 171.76 497.205 170.736C498.197 169.68 499.333 168.88 500.613 168.336C501.925 167.792 503.301 167.52 504.741 167.52C506.661 167.52 508.181 167.888 509.301 168.624C510.421 169.328 511.301 170.336 511.941 171.648H512.805V158.4H518.853V192H512.805V188.544ZM506.469 186.912C508.357 186.912 509.877 186.32 511.029 185.136C512.213 183.92 512.805 182.336 512.805 180.384V179.808C512.805 177.856 512.213 176.288 511.029 175.104C509.877 173.888 508.357 173.28 506.469 173.28C504.581 173.28 503.045 173.872 501.861 175.056C500.709 176.208 500.133 177.792 500.133 179.808V180.384C500.133 182.4 500.709 184 501.861 185.184C503.045 186.336 504.581 186.912 506.469 186.912ZM538.373 188.544C537.733 190.048 536.837 191.12 535.685 191.76C534.533 192.368 533.189 192.672 531.653 192.672C530.213 192.672 528.853 192.4 527.573 191.856C526.325 191.312 525.221 190.512 524.261 189.456C523.301 188.4 522.533 187.12 521.957 185.616C521.413 184.112 521.141 182.4 521.141 180.48V179.712C521.141 177.824 521.413 176.128 521.957 174.624C522.501 173.12 523.237 171.84 524.165 170.784C525.093 169.728 526.165 168.928 527.381 168.384C528.629 167.808 529.957 167.52 531.365 167.52C533.061 167.52 534.421 167.808 535.445 168.384C536.501 168.96 537.333 169.856 537.941 171.072H538.805V168.192H544.853V184.8C544.853 185.76 545.285 186.24 546.149 186.24H547.061V192H542.933C541.845 192 540.949 191.68 540.245 191.04C539.573 190.4 539.237 189.568 539.237 188.544H538.373ZM532.997 186.912C534.757 186.912 536.165 186.336 537.221 185.184C538.277 184 538.805 182.4 538.805 180.384V179.808C538.805 177.792 538.277 176.208 537.221 175.056C536.165 173.872 534.757 173.28 532.997 173.28C531.237 173.28 529.829 173.872 528.773 175.056C527.717 176.208 527.189 177.792 527.189 179.808V180.384C527.189 182.4 527.717 184 528.773 185.184C529.829 186.336 531.237 186.912 532.997 186.912ZM566.341 168.192H572.389V197.856C572.389 198.944 572.037 199.84 571.333 200.544C570.661 201.248 569.781 201.6 568.693 201.6H554.533V195.84H565.045C565.909 195.84 566.341 195.36 566.341 194.4V188.544H565.477C564.421 191.296 562.149 192.672 558.661 192.672C557.477 192.672 556.373 192.48 555.349 192.096C554.325 191.712 553.429 191.12 552.661 190.32C551.893 189.52 551.285 188.528 550.837 187.344C550.421 186.128 550.213 184.704 550.213 183.072V168.192H556.261V181.824C556.261 183.52 556.661 184.848 557.461 185.808C558.261 186.736 559.461 187.2 561.061 187.2C562.885 187.2 564.213 186.624 565.045 185.472C565.909 184.288 566.341 182.688 566.341 180.672V168.192Z" fill="white"/>
<rect x="916" y="122" width="159" height="56" rx="4" fill="#E5ECF4"/>
<g clip-path="url(#clip0_0_3535)">
<path d="M976.5 162H971.74L971.06 165H968.3L971.64 151H976.6L979.94 165H977.18L976.5 162ZM972.3 159.48H975.92L974.3 152.32H973.94L972.3 159.48ZM982.913 169H980.393V155.08H982.913V156.52H983.273C983.54 155.973 983.927 155.553 984.433 155.26C984.94 154.953 985.587 154.8 986.373 154.8C986.96 154.8 987.513 154.913 988.033 155.14C988.567 155.367 989.027 155.7 989.413 156.14C989.813 156.567 990.127 157.093 990.353 157.72C990.593 158.347 990.713 159.06 990.713 159.86V160.22C990.713 161.033 990.6 161.753 990.373 162.38C990.147 163.007 989.84 163.54 989.453 163.98C989.067 164.407 988.607 164.733 988.073 164.96C987.553 165.173 986.987 165.28 986.373 165.28C985.92 165.28 985.527 165.233 985.193 165.14C984.86 165.047 984.567 164.92 984.313 164.76C984.073 164.6 983.867 164.42 983.693 164.22C983.533 164.007 983.393 163.787 983.273 163.56H982.913V169ZM985.553 162.88C986.34 162.88 986.973 162.64 987.453 162.16C987.947 161.667 988.193 161 988.193 160.16V159.92C988.193 159.08 987.947 158.42 987.453 157.94C986.973 157.447 986.34 157.2 985.553 157.2C984.767 157.2 984.127 157.453 983.633 157.96C983.153 158.453 982.913 159.107 982.913 159.92V160.16C982.913 160.973 983.153 161.633 983.633 162.14C984.127 162.633 984.767 162.88 985.553 162.88ZM994.266 169H991.746V155.08H994.266V156.52H994.626C994.893 155.973 995.28 155.553 995.786 155.26C996.293 154.953 996.94 154.8 997.726 154.8C998.313 154.8 998.866 154.913 999.386 155.14C999.92 155.367 1000.38 155.7 1000.77 156.14C1001.17 156.567 1001.48 157.093 1001.71 157.72C1001.95 158.347 1002.07 159.06 1002.07 159.86V160.22C1002.07 161.033 1001.95 161.753 1001.73 162.38C1001.5 163.007 1001.19 163.54 1000.81 163.98C1000.42 164.407 999.96 164.733 999.426 164.96C998.906 165.173 998.34 165.28 997.726 165.28C997.273 165.28 996.88 165.233 996.546 165.14C996.213 165.047 995.92 164.92 995.666 164.76C995.426 164.6 995.22 164.42 995.046 164.22C994.886 164.007 994.746 163.787 994.626 163.56H994.266V169ZM996.906 162.88C997.693 162.88 998.326 162.64 998.806 162.16C999.3 161.667 999.546 161 999.546 160.16V159.92C999.546 159.08 999.3 158.42 998.806 157.94C998.326 157.447 997.693 157.2 996.906 157.2C996.12 157.2 995.48 157.453 994.986 157.96C994.506 158.453 994.266 159.107 994.266 159.92V160.16C994.266 160.973 994.506 161.633 994.986 162.14C995.48 162.633 996.12 162.88 996.906 162.88ZM1010.58 155.28C1010.58 154.72 1010.36 154.233 1009.92 153.82C1009.49 153.407 1008.89 153.2 1008.1 153.2C1007.43 153.2 1006.91 153.34 1006.52 153.62C1006.13 153.887 1005.94 154.253 1005.94 154.72C1005.94 154.96 1005.99 155.18 1006.08 155.38C1006.17 155.567 1006.33 155.74 1006.56 155.9C1006.8 156.047 1007.11 156.18 1007.48 156.3C1007.87 156.42 1008.35 156.533 1008.94 156.64C1010.41 156.907 1011.53 157.353 1012.3 157.98C1013.07 158.607 1013.46 159.533 1013.46 160.76V161C1013.46 161.653 1013.34 162.247 1013.1 162.78C1012.87 163.3 1012.54 163.747 1012.1 164.12C1011.66 164.493 1011.13 164.78 1010.5 164.98C1009.87 165.18 1009.17 165.28 1008.38 165.28C1007.46 165.28 1006.65 165.153 1005.94 164.9C1005.25 164.633 1004.67 164.273 1004.2 163.82C1003.73 163.353 1003.38 162.813 1003.14 162.2C1002.9 161.573 1002.78 160.893 1002.78 160.16V159.56H1005.42V160.04C1005.42 160.88 1005.66 161.553 1006.14 162.06C1006.63 162.553 1007.39 162.8 1008.42 162.8C1009.22 162.8 1009.81 162.627 1010.2 162.28C1010.59 161.933 1010.78 161.52 1010.78 161.04C1010.78 160.813 1010.74 160.6 1010.66 160.4C1010.58 160.187 1010.44 160 1010.24 159.84C1010.04 159.667 1009.77 159.513 1009.42 159.38C1009.07 159.247 1008.63 159.133 1008.1 159.04C1007.39 158.92 1006.75 158.767 1006.16 158.58C1005.57 158.38 1005.06 158.12 1004.62 157.8C1004.19 157.48 1003.86 157.08 1003.62 156.6C1003.38 156.12 1003.26 155.533 1003.26 154.84V154.72C1003.26 154.147 1003.37 153.62 1003.6 153.14C1003.84 152.647 1004.17 152.22 1004.58 151.86C1005.01 151.5 1005.51 151.22 1006.1 151.02C1006.7 150.82 1007.37 150.72 1008.1 150.72C1008.93 150.72 1009.66 150.84 1010.3 151.08C1010.94 151.307 1011.47 151.62 1011.9 152.02C1012.34 152.42 1012.67 152.88 1012.88 153.4C1013.11 153.92 1013.22 154.467 1013.22 155.04V155.76H1010.58V155.28ZM1014.69 155.08H1017.63V151H1020.15V155.08H1023.73V157.48H1020.15V162C1020.15 162.4 1020.33 162.6 1020.69 162.6H1023.37V165H1019.17C1018.72 165 1018.35 164.853 1018.05 164.56C1017.77 164.267 1017.63 163.893 1017.63 163.44V157.48H1014.69V155.08ZM1036.05 160.16C1036.05 160.987 1035.91 161.72 1035.63 162.36C1035.35 162.987 1034.97 163.52 1034.49 163.96C1034.01 164.387 1033.45 164.713 1032.83 164.94C1032.21 165.167 1031.57 165.28 1030.89 165.28C1030.21 165.28 1029.55 165.167 1028.93 164.94C1028.31 164.713 1027.77 164.387 1027.29 163.96C1026.81 163.52 1026.43 162.987 1026.15 162.36C1025.87 161.72 1025.73 160.987 1025.73 160.16V159.92C1025.73 159.107 1025.87 158.387 1026.15 157.76C1026.43 157.12 1026.81 156.58 1027.29 156.14C1027.77 155.7 1028.31 155.367 1028.93 155.14C1029.55 154.913 1030.21 154.8 1030.89 154.8C1031.57 154.8 1032.21 154.913 1032.83 155.14C1033.45 155.367 1034.01 155.7 1034.49 156.14C1034.97 156.58 1035.35 157.12 1035.63 157.76C1035.91 158.387 1036.05 159.107 1036.05 159.92V160.16ZM1030.89 162.88C1031.25 162.88 1031.59 162.82 1031.91 162.7C1032.23 162.58 1032.51 162.407 1032.75 162.18C1032.99 161.953 1033.17 161.68 1033.31 161.36C1033.45 161.027 1033.53 160.653 1033.53 160.24V159.84C1033.53 159.427 1033.45 159.06 1033.31 158.74C1033.17 158.407 1032.99 158.127 1032.75 157.9C1032.51 157.673 1032.23 157.5 1031.91 157.38C1031.59 157.26 1031.25 157.2 1030.89 157.2C1030.53 157.2 1030.19 157.26 1029.87 157.38C1029.55 157.5 1029.27 157.673 1029.03 157.9C1028.79 158.127 1028.59 158.407 1028.45 158.74C1028.31 159.06 1028.25 159.427 1028.25 159.84V160.24C1028.25 160.653 1028.31 161.027 1028.45 161.36C1028.59 161.68 1028.79 161.953 1029.03 162.18C1029.27 162.407 1029.55 162.58 1029.87 162.7C1030.19 162.82 1030.53 162.88 1030.89 162.88ZM1037.2 155.08H1041.4V156.52H1041.76C1041.95 155.973 1042.26 155.553 1042.7 155.26C1043.15 154.953 1043.69 154.8 1044.32 154.8C1045.31 154.8 1046.1 155.113 1046.7 155.74C1047.3 156.353 1047.6 157.293 1047.6 158.56V159L1045 159.24V158.96C1045 158.413 1044.86 157.98 1044.58 157.66C1044.3 157.327 1043.88 157.16 1043.32 157.16C1042.76 157.16 1042.32 157.353 1042 157.74C1041.68 158.127 1041.52 158.68 1041.52 159.4V162.6H1043.8V165H1036.96V162.6H1039V157.48H1037.2V155.08ZM1051.25 160.86C1051.27 161.153 1051.33 161.427 1051.45 161.68C1051.59 161.92 1051.76 162.133 1051.97 162.32C1052.2 162.493 1052.45 162.633 1052.73 162.74C1053.03 162.833 1053.33 162.88 1053.65 162.88C1054.28 162.88 1054.76 162.773 1055.09 162.56C1055.43 162.333 1055.67 162.067 1055.81 161.76L1057.97 162.96C1057.85 163.213 1057.69 163.48 1057.47 163.76C1057.26 164.027 1056.98 164.273 1056.63 164.5C1056.3 164.727 1055.89 164.913 1055.39 165.06C1054.91 165.207 1054.35 165.28 1053.69 165.28C1052.95 165.28 1052.27 165.16 1051.65 164.92C1051.04 164.68 1050.51 164.333 1050.05 163.88C1049.61 163.427 1049.27 162.873 1049.01 162.22C1048.77 161.567 1048.65 160.827 1048.65 160V159.88C1048.65 159.12 1048.78 158.427 1049.03 157.8C1049.3 157.173 1049.66 156.64 1050.11 156.2C1050.57 155.76 1051.09 155.42 1051.69 155.18C1052.31 154.927 1052.96 154.8 1053.65 154.8C1054.51 154.8 1055.24 154.953 1055.85 155.26C1056.47 155.553 1056.97 155.933 1057.37 156.4C1057.77 156.853 1058.07 157.36 1058.25 157.92C1058.44 158.467 1058.53 159 1058.53 159.52V160.86H1051.25ZM1053.63 157.08C1052.99 157.08 1052.47 157.247 1052.07 157.58C1051.67 157.9 1051.41 158.273 1051.29 158.7H1055.97C1055.89 158.233 1055.64 157.847 1055.21 157.54C1054.8 157.233 1054.27 157.08 1053.63 157.08Z" fill="#495567"/>
<path d="M972.25 139.5H969.87L969.53 141H968.15L969.82 134H972.3L973.97 141H972.59L972.25 139.5ZM970.15 138.24H971.96L971.15 134.66H970.97L970.15 138.24ZM974.107 136.04H975.467L976.637 140.4H976.817L977.987 136.04H979.347L977.927 141H975.527L974.107 136.04ZM983.343 140.28C983.21 140.593 983.023 140.817 982.783 140.95C982.543 141.077 982.263 141.14 981.943 141.14C981.643 141.14 981.36 141.083 981.093 140.97C980.833 140.857 980.603 140.69 980.403 140.47C980.203 140.25 980.043 139.983 979.923 139.67C979.81 139.357 979.753 139 979.753 138.6V138.44C979.753 138.047 979.81 137.693 979.923 137.38C980.037 137.067 980.19 136.8 980.383 136.58C980.577 136.36 980.8 136.193 981.053 136.08C981.313 135.96 981.59 135.9 981.883 135.9C982.237 135.9 982.52 135.96 982.733 136.08C982.953 136.2 983.127 136.387 983.253 136.64H983.433V136.04H984.693V139.5C984.693 139.7 984.783 139.8 984.963 139.8H985.153V141H984.293C984.067 141 983.88 140.933 983.733 140.8C983.593 140.667 983.523 140.493 983.523 140.28H983.343ZM982.223 139.94C982.59 139.94 982.883 139.82 983.103 139.58C983.323 139.333 983.433 139 983.433 138.58V138.46C983.433 138.04 983.323 137.71 983.103 137.47C982.883 137.223 982.59 137.1 982.223 137.1C981.857 137.1 981.563 137.223 981.343 137.47C981.123 137.71 981.013 138.04 981.013 138.46V138.58C981.013 139 981.123 139.333 981.343 139.58C981.563 139.82 981.857 139.94 982.223 139.94ZM985.9 139.8H987.58V137.24H986.02V136.04H988.84V139.8H990.28V141H985.9V139.8ZM989.15 134.57C989.15 134.703 989.123 134.83 989.07 134.95C989.023 135.063 988.957 135.163 988.87 135.25C988.783 135.33 988.68 135.397 988.56 135.45C988.447 135.497 988.327 135.52 988.2 135.52C988.067 135.52 987.943 135.497 987.83 135.45C987.717 135.397 987.617 135.33 987.53 135.25C987.443 135.163 987.373 135.063 987.32 134.95C987.273 134.83 987.25 134.703 987.25 134.57C987.25 134.437 987.273 134.313 987.32 134.2C987.373 134.08 987.443 133.98 987.53 133.9C987.617 133.813 987.717 133.747 987.83 133.7C987.943 133.647 988.067 133.62 988.2 133.62C988.327 133.62 988.447 133.647 988.56 133.7C988.68 133.747 988.783 133.813 988.87 133.9C988.957 133.98 989.023 134.08 989.07 134.2C989.123 134.313 989.15 134.437 989.15 134.57ZM991.456 139.8H993.196V135.2H991.516V134H994.456V139.8H996.076V141H991.456V139.8ZM1000.37 140.28C1000.24 140.593 1000.05 140.817 999.813 140.95C999.573 141.077 999.293 141.14 998.973 141.14C998.673 141.14 998.39 141.083 998.123 140.97C997.863 140.857 997.633 140.69 997.433 140.47C997.233 140.25 997.073 139.983 996.953 139.67C996.84 139.357 996.783 139 996.783 138.6V138.44C996.783 138.047 996.84 137.693 996.953 137.38C997.066 137.067 997.22 136.8 997.413 136.58C997.606 136.36 997.83 136.193 998.083 136.08C998.343 135.96 998.62 135.9 998.913 135.9C999.266 135.9 999.55 135.96 999.763 136.08C999.983 136.2 1000.16 136.387 1000.28 136.64H1000.46V136.04H1001.72V139.5C1001.72 139.7 1001.81 139.8 1001.99 139.8H1002.18V141H1001.32C1001.1 141 1000.91 140.933 1000.76 140.8C1000.62 140.667 1000.55 140.493 1000.55 140.28H1000.37ZM999.253 139.94C999.62 139.94 999.913 139.82 1000.13 139.58C1000.35 139.333 1000.46 139 1000.46 138.58V138.46C1000.46 138.04 1000.35 137.71 1000.13 137.47C999.913 137.223 999.62 137.1 999.253 137.1C998.886 137.1 998.593 137.223 998.373 137.47C998.153 137.71 998.043 138.04 998.043 138.46V138.58C998.043 139 998.153 139.333 998.373 139.58C998.593 139.82 998.886 139.94 999.253 139.94ZM1003.89 141H1002.63V134H1003.89V136.76H1004.07C1004.2 136.487 1004.4 136.277 1004.65 136.13C1004.9 135.977 1005.23 135.9 1005.62 135.9C1005.91 135.9 1006.19 135.957 1006.45 136.07C1006.72 136.183 1006.95 136.35 1007.14 136.57C1007.34 136.783 1007.5 137.047 1007.61 137.36C1007.73 137.673 1007.79 138.03 1007.79 138.43V138.61C1007.79 139.017 1007.73 139.377 1007.62 139.69C1007.51 140.003 1007.35 140.27 1007.16 140.49C1006.97 140.703 1006.74 140.867 1006.47 140.98C1006.21 141.087 1005.93 141.14 1005.62 141.14C1005.39 141.14 1005.2 141.117 1005.03 141.07C1004.86 141.023 1004.72 140.96 1004.59 140.88C1004.47 140.8 1004.37 140.71 1004.28 140.61C1004.2 140.503 1004.13 140.393 1004.07 140.28H1003.89V141ZM1005.21 139.94C1005.6 139.94 1005.92 139.82 1006.16 139.58C1006.41 139.333 1006.53 139 1006.53 138.58V138.46C1006.53 138.04 1006.41 137.71 1006.16 137.47C1005.92 137.223 1005.6 137.1 1005.21 137.1C1004.82 137.1 1004.5 137.227 1004.25 137.48C1004.01 137.727 1003.89 138.053 1003.89 138.46V138.58C1003.89 138.987 1004.01 139.317 1004.25 139.57C1004.5 139.817 1004.82 139.94 1005.21 139.94ZM1008.49 139.8H1010.23V135.2H1008.55V134H1011.49V139.8H1013.11V141H1008.49V139.8ZM1015.3 138.93C1015.31 139.077 1015.34 139.213 1015.4 139.34C1015.47 139.46 1015.56 139.567 1015.66 139.66C1015.78 139.747 1015.9 139.817 1016.04 139.87C1016.19 139.917 1016.34 139.94 1016.5 139.94C1016.82 139.94 1017.06 139.887 1017.22 139.78C1017.39 139.667 1017.51 139.533 1017.58 139.38L1018.66 139.98C1018.6 140.107 1018.52 140.24 1018.41 140.38C1018.31 140.513 1018.17 140.637 1017.99 140.75C1017.83 140.863 1017.62 140.957 1017.37 141.03C1017.13 141.103 1016.85 141.14 1016.52 141.14C1016.15 141.14 1015.81 141.08 1015.5 140.96C1015.2 140.84 1014.93 140.667 1014.7 140.44C1014.48 140.213 1014.31 139.937 1014.18 139.61C1014.06 139.283 1014 138.913 1014 138.5V138.44C1014 138.06 1014.07 137.713 1014.19 137.4C1014.33 137.087 1014.51 136.82 1014.73 136.6C1014.96 136.38 1015.22 136.21 1015.52 136.09C1015.83 135.963 1016.16 135.9 1016.5 135.9C1016.93 135.9 1017.3 135.977 1017.6 136.13C1017.91 136.277 1018.16 136.467 1018.36 136.7C1018.56 136.927 1018.71 137.18 1018.8 137.46C1018.9 137.733 1018.94 138 1018.94 138.26V138.93H1015.3ZM1016.49 137.04C1016.17 137.04 1015.91 137.123 1015.71 137.29C1015.51 137.45 1015.38 137.637 1015.32 137.85H1017.66C1017.62 137.617 1017.5 137.423 1017.28 137.27C1017.08 137.117 1016.81 137.04 1016.49 137.04ZM1030.41 138.58C1030.41 138.993 1030.34 139.36 1030.2 139.68C1030.06 139.993 1029.87 140.26 1029.63 140.48C1029.39 140.693 1029.11 140.857 1028.8 140.97C1028.49 141.083 1028.17 141.14 1027.83 141.14C1027.49 141.14 1027.16 141.083 1026.85 140.97C1026.54 140.857 1026.27 140.693 1026.03 140.48C1025.79 140.26 1025.6 139.993 1025.46 139.68C1025.32 139.36 1025.25 138.993 1025.25 138.58V138.46C1025.25 138.053 1025.32 137.693 1025.46 137.38C1025.6 137.06 1025.79 136.79 1026.03 136.57C1026.27 136.35 1026.54 136.183 1026.85 136.07C1027.16 135.957 1027.49 135.9 1027.83 135.9C1028.17 135.9 1028.49 135.957 1028.8 136.07C1029.11 136.183 1029.39 136.35 1029.63 136.57C1029.87 136.79 1030.06 137.06 1030.2 137.38C1030.34 137.693 1030.41 138.053 1030.41 138.46V138.58ZM1027.83 139.94C1028.01 139.94 1028.18 139.91 1028.34 139.85C1028.5 139.79 1028.64 139.703 1028.76 139.59C1028.88 139.477 1028.97 139.34 1029.04 139.18C1029.11 139.013 1029.15 138.827 1029.15 138.62V138.42C1029.15 138.213 1029.11 138.03 1029.04 137.87C1028.97 137.703 1028.88 137.563 1028.76 137.45C1028.64 137.337 1028.5 137.25 1028.34 137.19C1028.18 137.13 1028.01 137.1 1027.83 137.1C1027.65 137.1 1027.48 137.13 1027.32 137.19C1027.16 137.25 1027.02 137.337 1026.9 137.45C1026.78 137.563 1026.68 137.703 1026.61 137.87C1026.54 138.03 1026.51 138.213 1026.51 138.42V138.62C1026.51 138.827 1026.54 139.013 1026.61 139.18C1026.68 139.34 1026.78 139.477 1026.9 139.59C1027.02 139.703 1027.16 139.79 1027.32 139.85C1027.48 139.91 1027.65 139.94 1027.83 139.94ZM1032.48 141H1031.22V136.04H1032.48V136.78H1032.66C1032.78 136.5 1032.96 136.283 1033.21 136.13C1033.47 135.977 1033.76 135.9 1034.1 135.9C1034.34 135.9 1034.57 135.94 1034.77 136.02C1034.99 136.093 1035.17 136.21 1035.33 136.37C1035.49 136.53 1035.62 136.733 1035.7 136.98C1035.8 137.227 1035.84 137.52 1035.84 137.86V141H1034.58V138.18C1034.58 137.827 1034.5 137.55 1034.32 137.35C1034.16 137.143 1033.91 137.04 1033.59 137.04C1033.22 137.04 1032.94 137.167 1032.75 137.42C1032.57 137.667 1032.48 138 1032.48 138.42V141ZM1042.44 136.04H1043.91V134H1045.17V136.04H1046.96V137.24H1045.17V139.5C1045.17 139.7 1045.26 139.8 1045.44 139.8H1046.78V141H1044.68C1044.45 141 1044.26 140.927 1044.12 140.78C1043.98 140.633 1043.91 140.447 1043.91 140.22V137.24H1042.44V136.04ZM1049.53 141H1048.27V134H1049.53V136.84H1049.71C1049.84 136.54 1050.03 136.31 1050.27 136.15C1050.52 135.983 1050.82 135.9 1051.18 135.9C1051.43 135.9 1051.66 135.94 1051.86 136.02C1052.07 136.1 1052.25 136.22 1052.4 136.38C1052.56 136.54 1052.68 136.747 1052.76 137C1052.85 137.247 1052.89 137.54 1052.89 137.88V141H1051.63V138.18C1051.63 137.827 1051.55 137.55 1051.37 137.35C1051.21 137.143 1050.96 137.04 1050.64 137.04C1050.27 137.04 1049.99 137.167 1049.8 137.42C1049.62 137.667 1049.53 138 1049.53 138.42V141ZM1055.04 138.93C1055.05 139.077 1055.08 139.213 1055.14 139.34C1055.21 139.46 1055.29 139.567 1055.4 139.66C1055.51 139.747 1055.64 139.817 1055.78 139.87C1055.93 139.917 1056.08 139.94 1056.24 139.94C1056.55 139.94 1056.79 139.887 1056.96 139.78C1057.13 139.667 1057.25 139.533 1057.32 139.38L1058.4 139.98C1058.34 140.107 1058.26 140.24 1058.15 140.38C1058.04 140.513 1057.9 140.637 1057.73 140.75C1057.56 140.863 1057.36 140.957 1057.11 141.03C1056.87 141.103 1056.59 141.14 1056.26 141.14C1055.89 141.14 1055.55 141.08 1055.24 140.96C1054.93 140.84 1054.67 140.667 1054.44 140.44C1054.22 140.213 1054.05 139.937 1053.92 139.61C1053.8 139.283 1053.74 138.913 1053.74 138.5V138.44C1053.74 138.06 1053.8 137.713 1053.93 137.4C1054.06 137.087 1054.24 136.82 1054.47 136.6C1054.7 136.38 1054.96 136.21 1055.26 136.09C1055.57 135.963 1055.89 135.9 1056.24 135.9C1056.67 135.9 1057.03 135.977 1057.34 136.13C1057.65 136.277 1057.9 136.467 1058.1 136.7C1058.3 136.927 1058.45 137.18 1058.54 137.46C1058.63 137.733 1058.68 138 1058.68 138.26V138.93H1055.04ZM1056.23 137.04C1055.91 137.04 1055.65 137.123 1055.45 137.29C1055.25 137.45 1055.12 137.637 1055.06 137.85H1057.4C1057.36 137.617 1057.23 137.423 1057.02 137.27C1056.81 137.117 1056.55 137.04 1056.23 137.04Z" fill="#495567"/>
</g>
<path fill-rule="evenodd" clip-rule="evenodd" d="M945.55 138.233C946.538 137.026 948.233 136.1 949.683 136C949.926 137.649 949.255 139.264 948.367 140.406C947.419 141.632 945.781 142.581 944.197 142.532C943.908 140.952 944.649 139.327 945.55 138.233ZM950.017 142.533C951.947 142.533 953.99 143.577 955.445 145.376C950.677 147.97 951.449 154.728 956.267 156.538C955.604 157.995 955.287 158.645 954.432 159.936C953.241 161.737 951.563 163.981 949.48 163.996C948.624 164.005 948.062 163.75 947.457 163.474C946.755 163.154 945.994 162.808 944.647 162.816C943.308 162.822 942.534 163.164 941.823 163.479C941.202 163.754 940.627 164.008 939.764 164C937.683 163.982 936.092 161.957 934.901 160.157C931.571 155.124 931.22 149.216 933.274 146.073C934.736 143.842 937.04 142.537 939.205 142.537C940.358 142.537 941.288 142.866 942.174 143.179C942.981 143.464 943.751 143.737 944.62 143.737C945.425 143.737 946.087 143.488 946.809 143.217C947.674 142.891 948.627 142.533 950.017 142.533Z" fill="#495567"/>
<rect x="1093" y="122" width="182" height="56" rx="4" fill="#E5ECF4"/>
<g clip-path="url(#clip1_0_3535)">
<path d="M1150.2 157.92H1156.2V165H1153.8V163.44H1153.44C1153.28 163.96 1152.97 164.4 1152.52 164.76C1152.07 165.107 1151.39 165.28 1150.48 165.28C1149.84 165.28 1149.24 165.16 1148.68 164.92C1148.12 164.68 1147.63 164.327 1147.22 163.86C1146.81 163.38 1146.48 162.793 1146.24 162.1C1146 161.393 1145.88 160.573 1145.88 159.64V156.36C1145.88 155.453 1146.01 154.653 1146.26 153.96C1146.53 153.253 1146.89 152.66 1147.34 152.18C1147.81 151.7 1148.36 151.34 1149 151.1C1149.64 150.847 1150.35 150.72 1151.12 150.72C1151.92 150.72 1152.63 150.853 1153.26 151.12C1153.89 151.373 1154.42 151.733 1154.86 152.2C1155.3 152.653 1155.63 153.193 1155.86 153.82C1156.09 154.433 1156.2 155.093 1156.2 155.8V156.04H1153.56V155.8C1153.56 154.96 1153.34 154.327 1152.9 153.9C1152.47 153.46 1151.87 153.24 1151.08 153.24C1150.33 153.24 1149.72 153.493 1149.24 154C1148.76 154.493 1148.52 155.347 1148.52 156.56V159.52C1148.52 161.68 1149.4 162.76 1151.16 162.76C1151.95 162.76 1152.54 162.553 1152.94 162.14C1153.35 161.713 1153.56 161.147 1153.56 160.44H1150.2V157.92ZM1167.63 160.16C1167.63 160.987 1167.49 161.72 1167.21 162.36C1166.93 162.987 1166.55 163.52 1166.07 163.96C1165.59 164.387 1165.04 164.713 1164.41 164.94C1163.8 165.167 1163.15 165.28 1162.47 165.28C1161.79 165.28 1161.14 165.167 1160.51 164.94C1159.9 164.713 1159.35 164.387 1158.87 163.96C1158.39 163.52 1158.01 162.987 1157.73 162.36C1157.45 161.72 1157.31 160.987 1157.31 160.16V159.92C1157.31 159.107 1157.45 158.387 1157.73 157.76C1158.01 157.12 1158.39 156.58 1158.87 156.14C1159.35 155.7 1159.9 155.367 1160.51 155.14C1161.14 154.913 1161.79 154.8 1162.47 154.8C1163.15 154.8 1163.8 154.913 1164.41 155.14C1165.04 155.367 1165.59 155.7 1166.07 156.14C1166.55 156.58 1166.93 157.12 1167.21 157.76C1167.49 158.387 1167.63 159.107 1167.63 159.92V160.16ZM1162.47 162.88C1162.83 162.88 1163.17 162.82 1163.49 162.7C1163.81 162.58 1164.09 162.407 1164.33 162.18C1164.57 161.953 1164.76 161.68 1164.89 161.36C1165.04 161.027 1165.11 160.653 1165.11 160.24V159.84C1165.11 159.427 1165.04 159.06 1164.89 158.74C1164.76 158.407 1164.57 158.127 1164.33 157.9C1164.09 157.673 1163.81 157.5 1163.49 157.38C1163.17 157.26 1162.83 157.2 1162.47 157.2C1162.11 157.2 1161.77 157.26 1161.45 157.38C1161.13 157.5 1160.85 157.673 1160.61 157.9C1160.37 158.127 1160.18 158.407 1160.03 158.74C1159.9 159.06 1159.83 159.427 1159.83 159.84V160.24C1159.83 160.653 1159.9 161.027 1160.03 161.36C1160.18 161.68 1160.37 161.953 1160.61 162.18C1160.85 162.407 1161.13 162.58 1161.45 162.7C1161.77 162.82 1162.11 162.88 1162.47 162.88ZM1178.99 160.16C1178.99 160.987 1178.85 161.72 1178.57 162.36C1178.29 162.987 1177.91 163.52 1177.43 163.96C1176.95 164.387 1176.39 164.713 1175.77 164.94C1175.15 165.167 1174.51 165.28 1173.83 165.28C1173.15 165.28 1172.49 165.167 1171.87 164.94C1171.25 164.713 1170.71 164.387 1170.23 163.96C1169.75 163.52 1169.37 162.987 1169.09 162.36C1168.81 161.72 1168.67 160.987 1168.67 160.16V159.92C1168.67 159.107 1168.81 158.387 1169.09 157.76C1169.37 157.12 1169.75 156.58 1170.23 156.14C1170.71 155.7 1171.25 155.367 1171.87 155.14C1172.49 154.913 1173.15 154.8 1173.83 154.8C1174.51 154.8 1175.15 154.913 1175.77 155.14C1176.39 155.367 1176.95 155.7 1177.43 156.14C1177.91 156.58 1178.29 157.12 1178.57 157.76C1178.85 158.387 1178.99 159.107 1178.99 159.92V160.16ZM1173.83 162.88C1174.19 162.88 1174.53 162.82 1174.85 162.7C1175.17 162.58 1175.45 162.407 1175.69 162.18C1175.93 161.953 1176.11 161.68 1176.25 161.36C1176.39 161.027 1176.47 160.653 1176.47 160.24V159.84C1176.47 159.427 1176.39 159.06 1176.25 158.74C1176.11 158.407 1175.93 158.127 1175.69 157.9C1175.45 157.673 1175.17 157.5 1174.85 157.38C1174.53 157.26 1174.19 157.2 1173.83 157.2C1173.47 157.2 1173.13 157.26 1172.81 157.38C1172.49 157.5 1172.21 157.673 1171.97 157.9C1171.73 158.127 1171.53 158.407 1171.39 158.74C1171.25 159.06 1171.19 159.427 1171.19 159.84V160.24C1171.19 160.653 1171.25 161.027 1171.39 161.36C1171.53 161.68 1171.73 161.953 1171.97 162.18C1172.21 162.407 1172.49 162.58 1172.81 162.7C1173.13 162.82 1173.47 162.88 1173.83 162.88ZM1187.7 163.56H1187.34C1187.23 163.787 1187.1 164.007 1186.94 164.22C1186.79 164.42 1186.59 164.6 1186.34 164.76C1186.1 164.92 1185.81 165.047 1185.46 165.14C1185.13 165.233 1184.72 165.28 1184.24 165.28C1183.63 165.28 1183.05 165.173 1182.52 164.96C1182 164.733 1181.54 164.407 1181.14 163.98C1180.75 163.54 1180.45 163.007 1180.22 162.38C1180.01 161.753 1179.9 161.033 1179.9 160.22V159.86C1179.9 159.06 1180.01 158.347 1180.24 157.72C1180.48 157.093 1180.8 156.567 1181.2 156.14C1181.61 155.7 1182.09 155.367 1182.62 155.14C1183.17 154.913 1183.74 154.8 1184.34 154.8C1185.14 154.8 1185.77 154.953 1186.24 155.26C1186.71 155.553 1187.07 155.973 1187.34 156.52H1187.7V155.08H1190.22V167.44C1190.22 167.893 1190.07 168.267 1189.78 168.56C1189.5 168.853 1189.13 169 1188.68 169H1182V166.6H1187.16C1187.52 166.6 1187.7 166.4 1187.7 166V163.56ZM1185.06 162.88C1185.85 162.88 1186.48 162.633 1186.96 162.14C1187.45 161.633 1187.7 160.973 1187.7 160.16V159.92C1187.7 159.107 1187.45 158.453 1186.96 157.96C1186.48 157.453 1185.85 157.2 1185.06 157.2C1184.27 157.2 1183.63 157.447 1183.14 157.94C1182.66 158.42 1182.42 159.08 1182.42 159.92V160.16C1182.42 161 1182.66 161.667 1183.14 162.16C1183.63 162.64 1184.27 162.88 1185.06 162.88ZM1191.91 162.6H1195.39V153.4H1192.03V151H1197.91V162.6H1201.15V165H1191.91V162.6ZM1205.55 160.86C1205.56 161.153 1205.63 161.427 1205.75 161.68C1205.88 161.92 1206.05 162.133 1206.27 162.32C1206.49 162.493 1206.75 162.633 1207.03 162.74C1207.32 162.833 1207.63 162.88 1207.95 162.88C1208.57 162.88 1209.05 162.773 1209.39 162.56C1209.72 162.333 1209.96 162.067 1210.11 161.76L1212.27 162.96C1212.15 163.213 1211.98 163.48 1211.77 163.76C1211.55 164.027 1211.27 164.273 1210.93 164.5C1210.59 164.727 1210.18 164.913 1209.69 165.06C1209.21 165.207 1208.64 165.28 1207.99 165.28C1207.24 165.28 1206.56 165.16 1205.95 164.92C1205.33 164.68 1204.8 164.333 1204.35 163.88C1203.91 163.427 1203.56 162.873 1203.31 162.22C1203.07 161.567 1202.95 160.827 1202.95 160V159.88C1202.95 159.12 1203.07 158.427 1203.33 157.8C1203.59 157.173 1203.95 156.64 1204.41 156.2C1204.86 155.76 1205.39 155.42 1205.99 155.18C1206.6 154.927 1207.25 154.8 1207.95 154.8C1208.8 154.8 1209.53 154.953 1210.15 155.26C1210.76 155.553 1211.27 155.933 1211.67 156.4C1212.07 156.853 1212.36 157.36 1212.55 157.92C1212.73 158.467 1212.83 159 1212.83 159.52V160.86H1205.55ZM1207.93 157.08C1207.29 157.08 1206.77 157.247 1206.37 157.58C1205.97 157.9 1205.71 158.273 1205.59 158.7H1210.27C1210.19 158.233 1209.93 157.847 1209.51 157.54C1209.09 157.233 1208.57 157.08 1207.93 157.08ZM1217.2 159.72V165H1214.56V151H1220.04C1220.76 151 1221.39 151.12 1221.92 151.36C1222.45 151.587 1222.89 151.893 1223.24 152.28C1223.6 152.653 1223.87 153.087 1224.04 153.58C1224.23 154.06 1224.32 154.553 1224.32 155.06V155.54C1224.32 156.06 1224.23 156.573 1224.04 157.08C1223.87 157.573 1223.6 158.02 1223.24 158.42C1222.89 158.807 1222.45 159.12 1221.92 159.36C1221.39 159.6 1220.76 159.72 1220.04 159.72H1217.2ZM1217.2 157.2H1219.78C1220.37 157.2 1220.83 157.04 1221.16 156.72C1221.51 156.4 1221.68 155.987 1221.68 155.48V155.24C1221.68 154.733 1221.51 154.32 1221.16 154C1220.83 153.68 1220.37 153.52 1219.78 153.52H1217.2V157.2ZM1225.97 162.6H1229.45V153.4H1226.09V151H1231.97V162.6H1235.21V165H1225.97V162.6ZM1243.81 163.56C1243.54 164.187 1243.17 164.633 1242.69 164.9C1242.21 165.153 1241.65 165.28 1241.01 165.28C1240.41 165.28 1239.84 165.167 1239.31 164.94C1238.79 164.713 1238.33 164.38 1237.93 163.94C1237.53 163.5 1237.21 162.967 1236.97 162.34C1236.74 161.713 1236.63 161 1236.63 160.2V159.88C1236.63 159.093 1236.74 158.387 1236.97 157.76C1237.19 157.133 1237.5 156.6 1237.89 156.16C1238.27 155.72 1238.72 155.387 1239.23 155.16C1239.75 154.92 1240.3 154.8 1240.89 154.8C1241.59 154.8 1242.16 154.92 1242.59 155.16C1243.03 155.4 1243.37 155.773 1243.63 156.28H1243.99V155.08H1246.51V162C1246.51 162.4 1246.69 162.6 1247.05 162.6H1247.43V165H1245.71C1245.25 165 1244.88 164.867 1244.59 164.6C1244.31 164.333 1244.17 163.987 1244.17 163.56H1243.81ZM1241.57 162.88C1242.3 162.88 1242.89 162.64 1243.33 162.16C1243.77 161.667 1243.99 161 1243.99 160.16V159.92C1243.99 159.08 1243.77 158.42 1243.33 157.94C1242.89 157.447 1242.3 157.2 1241.57 157.2C1240.83 157.2 1240.25 157.447 1239.81 157.94C1239.37 158.42 1239.15 159.08 1239.15 159.92V160.16C1239.15 161 1239.37 161.667 1239.81 162.16C1240.25 162.64 1240.83 162.88 1241.57 162.88ZM1255.46 155.08H1257.98V167.44C1257.98 167.893 1257.83 168.267 1257.54 168.56C1257.26 168.853 1256.89 169 1256.44 169H1250.54V166.6H1254.92C1255.28 166.6 1255.46 166.4 1255.46 166V163.56H1255.1C1254.66 164.707 1253.71 165.28 1252.26 165.28C1251.77 165.28 1251.31 165.2 1250.88 165.04C1250.45 164.88 1250.08 164.633 1249.76 164.3C1249.44 163.967 1249.19 163.553 1249 163.06C1248.83 162.553 1248.74 161.96 1248.74 161.28V155.08H1251.26V160.76C1251.26 161.467 1251.43 162.02 1251.76 162.42C1252.09 162.807 1252.59 163 1253.26 163C1254.02 163 1254.57 162.76 1254.92 162.28C1255.28 161.787 1255.46 161.12 1255.46 160.28V155.08Z" fill="#495567"/>
<path d="M1147.6 137.46H1150.6V141H1149.4V140.22H1149.22C1149.14 140.48 1148.99 140.7 1148.76 140.88C1148.53 141.053 1148.19 141.14 1147.74 141.14C1147.42 141.14 1147.12 141.08 1146.84 140.96C1146.56 140.84 1146.32 140.663 1146.11 140.43C1145.9 140.19 1145.74 139.897 1145.62 139.55C1145.5 139.197 1145.44 138.787 1145.44 138.32V136.68C1145.44 136.227 1145.5 135.827 1145.63 135.48C1145.76 135.127 1145.94 134.83 1146.17 134.59C1146.4 134.35 1146.68 134.17 1147 134.05C1147.32 133.923 1147.67 133.86 1148.06 133.86C1148.46 133.86 1148.82 133.927 1149.13 134.06C1149.44 134.187 1149.71 134.367 1149.93 134.6C1150.15 134.827 1150.32 135.097 1150.43 135.41C1150.54 135.717 1150.6 136.047 1150.6 136.4V136.52H1149.28V136.4C1149.28 135.98 1149.17 135.663 1148.95 135.45C1148.74 135.23 1148.43 135.12 1148.04 135.12C1147.67 135.12 1147.36 135.247 1147.12 135.5C1146.88 135.747 1146.76 136.173 1146.76 136.78V138.26C1146.76 139.34 1147.2 139.88 1148.08 139.88C1148.47 139.88 1148.77 139.777 1148.97 139.57C1149.18 139.357 1149.28 139.073 1149.28 138.72H1147.6V137.46ZM1152.57 138.93C1152.57 139.077 1152.61 139.213 1152.67 139.34C1152.73 139.46 1152.82 139.567 1152.93 139.66C1153.04 139.747 1153.17 139.817 1153.31 139.87C1153.45 139.917 1153.61 139.94 1153.77 139.94C1154.08 139.94 1154.32 139.887 1154.49 139.78C1154.65 139.667 1154.77 139.533 1154.85 139.38L1155.93 139.98C1155.87 140.107 1155.78 140.24 1155.68 140.38C1155.57 140.513 1155.43 140.637 1155.26 140.75C1155.09 140.863 1154.88 140.957 1154.64 141.03C1154.4 141.103 1154.11 141.14 1153.79 141.14C1153.41 141.14 1153.07 141.08 1152.77 140.96C1152.46 140.84 1152.19 140.667 1151.97 140.44C1151.75 140.213 1151.57 139.937 1151.45 139.61C1151.33 139.283 1151.27 138.913 1151.27 138.5V138.44C1151.27 138.06 1151.33 137.713 1151.46 137.4C1151.59 137.087 1151.77 136.82 1152 136.6C1152.22 136.38 1152.49 136.21 1152.79 136.09C1153.09 135.963 1153.42 135.9 1153.77 135.9C1154.19 135.9 1154.56 135.977 1154.87 136.13C1155.17 136.277 1155.43 136.467 1155.63 136.7C1155.83 136.927 1155.97 137.18 1156.07 137.46C1156.16 137.733 1156.21 138 1156.21 138.26V138.93H1152.57ZM1153.76 137.04C1153.44 137.04 1153.18 137.123 1152.98 137.29C1152.78 137.45 1152.65 137.637 1152.59 137.85H1154.93C1154.89 137.617 1154.76 137.423 1154.55 137.27C1154.34 137.117 1154.08 137.04 1153.76 137.04ZM1156.99 136.04H1158.46V134H1159.72V136.04H1161.51V137.24H1159.72V139.5C1159.72 139.7 1159.81 139.8 1159.99 139.8H1161.33V141H1159.23C1159.01 141 1158.82 140.927 1158.67 140.78C1158.53 140.633 1158.46 140.447 1158.46 140.22V137.24H1156.99V136.04ZM1168.58 139.8H1170.26V137.24H1168.7V136.04H1171.52V139.8H1172.96V141H1168.58V139.8ZM1171.83 134.57C1171.83 134.703 1171.8 134.83 1171.75 134.95C1171.7 135.063 1171.63 135.163 1171.55 135.25C1171.46 135.33 1171.36 135.397 1171.24 135.45C1171.12 135.497 1171 135.52 1170.88 135.52C1170.74 135.52 1170.62 135.497 1170.51 135.45C1170.39 135.397 1170.29 135.33 1170.21 135.25C1170.12 135.163 1170.05 135.063 1170 134.95C1169.95 134.83 1169.93 134.703 1169.93 134.57C1169.93 134.437 1169.95 134.313 1170 134.2C1170.05 134.08 1170.12 133.98 1170.21 133.9C1170.29 133.813 1170.39 133.747 1170.51 133.7C1170.62 133.647 1170.74 133.62 1170.88 133.62C1171 133.62 1171.12 133.647 1171.24 133.7C1171.36 133.747 1171.46 133.813 1171.55 133.9C1171.63 133.98 1171.7 134.08 1171.75 134.2C1171.8 134.313 1171.83 134.437 1171.83 134.57ZM1174.02 136.04H1175.49V134H1176.75V136.04H1178.54V137.24H1176.75V139.5C1176.75 139.7 1176.84 139.8 1177.02 139.8H1178.36V141H1176.26C1176.04 141 1175.85 140.927 1175.7 140.78C1175.56 140.633 1175.49 140.447 1175.49 140.22V137.24H1174.02V136.04ZM1190.38 138.58C1190.38 138.993 1190.31 139.36 1190.17 139.68C1190.03 139.993 1189.84 140.26 1189.6 140.48C1189.36 140.693 1189.08 140.857 1188.77 140.97C1188.46 141.083 1188.14 141.14 1187.8 141.14C1187.46 141.14 1187.13 141.083 1186.82 140.97C1186.51 140.857 1186.24 140.693 1186 140.48C1185.76 140.26 1185.57 139.993 1185.43 139.68C1185.29 139.36 1185.22 138.993 1185.22 138.58V138.46C1185.22 138.053 1185.29 137.693 1185.43 137.38C1185.57 137.06 1185.76 136.79 1186 136.57C1186.24 136.35 1186.51 136.183 1186.82 136.07C1187.13 135.957 1187.46 135.9 1187.8 135.9C1188.14 135.9 1188.46 135.957 1188.77 136.07C1189.08 136.183 1189.36 136.35 1189.6 136.57C1189.84 136.79 1190.03 137.06 1190.17 137.38C1190.31 137.693 1190.38 138.053 1190.38 138.46V138.58ZM1187.8 139.94C1187.98 139.94 1188.15 139.91 1188.31 139.85C1188.47 139.79 1188.61 139.703 1188.73 139.59C1188.85 139.477 1188.94 139.34 1189.01 139.18C1189.08 139.013 1189.12 138.827 1189.12 138.62V138.42C1189.12 138.213 1189.08 138.03 1189.01 137.87C1188.94 137.703 1188.85 137.563 1188.73 137.45C1188.61 137.337 1188.47 137.25 1188.31 137.19C1188.15 137.13 1187.98 137.1 1187.8 137.1C1187.62 137.1 1187.45 137.13 1187.29 137.19C1187.13 137.25 1186.99 137.337 1186.87 137.45C1186.75 137.563 1186.65 137.703 1186.58 137.87C1186.51 138.03 1186.48 138.213 1186.48 138.42V138.62C1186.48 138.827 1186.51 139.013 1186.58 139.18C1186.65 139.34 1186.75 139.477 1186.87 139.59C1186.99 139.703 1187.13 139.79 1187.29 139.85C1187.45 139.91 1187.62 139.94 1187.8 139.94ZM1192.45 141H1191.19V136.04H1192.45V136.78H1192.63C1192.75 136.5 1192.93 136.283 1193.18 136.13C1193.44 135.977 1193.73 135.9 1194.07 135.9C1194.31 135.9 1194.54 135.94 1194.74 136.02C1194.96 136.093 1195.14 136.21 1195.3 136.37C1195.46 136.53 1195.59 136.733 1195.67 136.98C1195.77 137.227 1195.81 137.52 1195.81 137.86V141H1194.55V138.18C1194.55 137.827 1194.47 137.55 1194.29 137.35C1194.13 137.143 1193.88 137.04 1193.56 137.04C1193.19 137.04 1192.91 137.167 1192.72 137.42C1192.54 137.667 1192.45 138 1192.45 138.42V141Z" fill="#495567"/>
</g>
<path fill-rule="evenodd" clip-rule="evenodd" d="M1110.35 136.237C1111.08 135.888 1111.91 135.925 1112.61 136.345L1126.48 144.423L1122.5 148.415L1110.35 136.237ZM1109 138.421C1109 138.05 1109.08 137.689 1109.24 137.364L1121.38 149.539L1109.24 161.744C1109.08 161.426 1109 161.07 1109 160.697V138.421ZM1122.51 150.662L1110.37 162.852C1110.7 163.001 1111.04 163.066 1111.38 163.066C1111.8 163.066 1112.22 162.965 1112.61 162.735L1126.48 154.645L1122.51 150.662ZM1131.75 147.491C1131.75 147.493 1131.76 147.496 1131.76 147.5C1132.48 147.934 1132.9 148.694 1132.9 149.533C1132.9 150.371 1132.48 151.131 1131.76 151.566C1131.76 151.569 1127.9 153.819 1127.9 153.819L1123.62 149.538L1127.89 145.248L1131.75 147.491Z" fill="#495567"/>
<rect y="300" width="1440" height="96" fill="#333A44"/>
<g clip-path="url(#clip2_0_3535)">
<path d="M341.375 351.75H337.805L337.295 354H335.225L337.73 343.5H341.45L343.955 354H341.885L341.375 351.75ZM338.225 349.86H340.94L339.725 344.49H339.455L338.225 349.86ZM346.93 354H345.04V343.5H346.93V347.64H347.2C347.4 347.23 347.69 346.915 348.07 346.695C348.45 346.465 348.935 346.35 349.525 346.35C349.965 346.35 350.38 346.435 350.77 346.605C351.17 346.775 351.515 347.025 351.805 347.355C352.105 347.675 352.34 348.07 352.51 348.54C352.69 349.01 352.78 349.545 352.78 350.145V350.415C352.78 351.025 352.695 351.565 352.525 352.035C352.355 352.505 352.125 352.905 351.835 353.235C351.545 353.555 351.2 353.8 350.8 353.97C350.41 354.13 349.985 354.21 349.525 354.21C349.185 354.21 348.89 354.175 348.64 354.105C348.39 354.035 348.17 353.94 347.98 353.82C347.8 353.7 347.645 353.565 347.515 353.415C347.395 353.255 347.29 353.09 347.2 352.92H346.93V354ZM348.91 352.41C349.5 352.41 349.975 352.23 350.335 351.87C350.705 351.5 350.89 351 350.89 350.37V350.19C350.89 349.56 350.705 349.065 350.335 348.705C349.975 348.335 349.5 348.15 348.91 348.15C348.32 348.15 347.84 348.34 347.47 348.72C347.11 349.09 346.93 349.58 346.93 350.19V350.37C346.93 350.98 347.11 351.475 347.47 351.855C347.84 352.225 348.32 352.41 348.91 352.41ZM361.829 350.37C361.829 350.99 361.724 351.54 361.514 352.02C361.304 352.49 361.019 352.89 360.659 353.22C360.299 353.54 359.884 353.785 359.414 353.955C358.954 354.125 358.469 354.21 357.959 354.21C357.449 354.21 356.959 354.125 356.489 353.955C356.029 353.785 355.619 353.54 355.259 353.22C354.899 352.89 354.614 352.49 354.404 352.02C354.194 351.54 354.089 350.99 354.089 350.37V350.19C354.089 349.58 354.194 349.04 354.404 348.57C354.614 348.09 354.899 347.685 355.259 347.355C355.619 347.025 356.029 346.775 356.489 346.605C356.959 346.435 357.449 346.35 357.959 346.35C358.469 346.35 358.954 346.435 359.414 346.605C359.884 346.775 360.299 347.025 360.659 347.355C361.019 347.685 361.304 348.09 361.514 348.57C361.724 349.04 361.829 349.58 361.829 350.19V350.37ZM357.959 352.41C358.229 352.41 358.484 352.365 358.724 352.275C358.964 352.185 359.174 352.055 359.354 351.885C359.534 351.715 359.674 351.51 359.774 351.27C359.884 351.02 359.939 350.74 359.939 350.43V350.13C359.939 349.82 359.884 349.545 359.774 349.305C359.674 349.055 359.534 348.845 359.354 348.675C359.174 348.505 358.964 348.375 358.724 348.285C358.484 348.195 358.229 348.15 357.959 348.15C357.689 348.15 357.434 348.195 357.194 348.285C356.954 348.375 356.744 348.505 356.564 348.675C356.384 348.845 356.239 349.055 356.129 349.305C356.029 349.545 355.979 349.82 355.979 350.13V350.43C355.979 350.74 356.029 351.02 356.129 351.27C356.239 351.51 356.384 351.715 356.564 351.885C356.744 352.055 356.954 352.185 357.194 352.275C357.434 352.365 357.689 352.41 357.959 352.41ZM368.764 346.56H370.654V354H368.764V352.92H368.494C368.164 353.78 367.454 354.21 366.364 354.21C365.994 354.21 365.649 354.15 365.329 354.03C365.009 353.91 364.729 353.725 364.489 353.475C364.249 353.225 364.059 352.915 363.919 352.545C363.789 352.165 363.724 351.72 363.724 351.21V346.56H365.614V350.82C365.614 351.35 365.739 351.765 365.989 352.065C366.239 352.355 366.614 352.5 367.114 352.5C367.684 352.5 368.099 352.32 368.359 351.96C368.629 351.59 368.764 351.09 368.764 350.46V346.56ZM372.698 346.56H374.903V343.5H376.793V346.56H379.478V348.36H376.793V351.75C376.793 352.05 376.928 352.2 377.198 352.2H379.208V354H376.058C375.718 354 375.438 353.89 375.218 353.67C375.008 353.45 374.903 353.17 374.903 352.83V348.36H372.698V346.56Z" fill="#939CAA"/>
<path d="M414.23 343.5H416.21V352.11H420.98V354H414.23V343.5ZM430.645 350.37C430.645 350.99 430.54 351.54 430.33 352.02C430.12 352.49 429.835 352.89 429.475 353.22C429.115 353.54 428.7 353.785 428.23 353.955C427.77 354.125 427.285 354.21 426.775 354.21C426.265 354.21 425.775 354.125 425.305 353.955C424.845 353.785 424.435 353.54 424.075 353.22C423.715 352.89 423.43 352.49 423.22 352.02C423.01 351.54 422.905 350.99 422.905 350.37V350.19C422.905 349.58 423.01 349.04 423.22 348.57C423.43 348.09 423.715 347.685 424.075 347.355C424.435 347.025 424.845 346.775 425.305 346.605C425.775 346.435 426.265 346.35 426.775 346.35C427.285 346.35 427.77 346.435 428.23 346.605C428.7 346.775 429.115 347.025 429.475 347.355C429.835 347.685 430.12 348.09 430.33 348.57C430.54 349.04 430.645 349.58 430.645 350.19V350.37ZM426.775 352.41C427.045 352.41 427.3 352.365 427.54 352.275C427.78 352.185 427.99 352.055 428.17 351.885C428.35 351.715 428.49 351.51 428.59 351.27C428.7 351.02 428.755 350.74 428.755 350.43V350.13C428.755 349.82 428.7 349.545 428.59 349.305C428.49 349.055 428.35 348.845 428.17 348.675C427.99 348.505 427.78 348.375 427.54 348.285C427.3 348.195 427.045 348.15 426.775 348.15C426.505 348.15 426.25 348.195 426.01 348.285C425.77 348.375 425.56 348.505 425.38 348.675C425.2 348.845 425.055 349.055 424.945 349.305C424.845 349.545 424.795 349.82 424.795 350.13V350.43C424.795 350.74 424.845 351.02 424.945 351.27C425.055 351.51 425.2 351.715 425.38 351.885C425.56 352.055 425.77 352.185 426.01 352.275C426.25 352.365 426.505 352.41 426.775 352.41ZM439.799 351.27C439.629 352.15 439.224 352.86 438.584 353.4C437.954 353.94 437.109 354.21 436.049 354.21C435.499 354.21 434.984 354.125 434.504 353.955C434.034 353.785 433.624 353.54 433.274 353.22C432.924 352.9 432.649 352.505 432.449 352.035C432.249 351.565 432.149 351.03 432.149 350.43V350.25C432.149 349.65 432.249 349.11 432.449 348.63C432.649 348.15 432.924 347.74 433.274 347.4C433.634 347.06 434.049 346.8 434.519 346.62C434.999 346.44 435.509 346.35 436.049 346.35C437.089 346.35 437.929 346.62 438.569 347.16C439.219 347.7 439.629 348.41 439.799 349.29L437.939 349.77C437.879 349.33 437.689 348.95 437.369 348.63C437.049 348.31 436.599 348.15 436.019 348.15C435.749 348.15 435.494 348.2 435.254 348.3C435.014 348.4 434.804 348.545 434.624 348.735C434.444 348.915 434.299 349.14 434.189 349.41C434.089 349.67 434.039 349.965 434.039 350.295V350.385C434.039 350.715 434.089 351.01 434.189 351.27C434.299 351.52 434.444 351.73 434.624 351.9C434.804 352.07 435.014 352.2 435.254 352.29C435.494 352.37 435.749 352.41 436.019 352.41C436.599 352.41 437.039 352.265 437.339 351.975C437.649 351.685 437.849 351.295 437.939 350.805L439.799 351.27ZM446.539 352.92C446.339 353.39 446.059 353.725 445.699 353.925C445.339 354.115 444.919 354.21 444.439 354.21C443.989 354.21 443.564 354.125 443.164 353.955C442.774 353.785 442.429 353.535 442.129 353.205C441.829 352.875 441.589 352.475 441.409 352.005C441.239 351.535 441.154 351 441.154 350.4V350.16C441.154 349.57 441.239 349.04 441.409 348.57C441.579 348.1 441.809 347.7 442.099 347.37C442.389 347.04 442.724 346.79 443.104 346.62C443.494 346.44 443.909 346.35 444.349 346.35C444.879 346.35 445.304 346.44 445.624 346.62C445.954 346.8 446.214 347.08 446.404 347.46H446.674V346.56H448.564V351.75C448.564 352.05 448.699 352.2 448.969 352.2H449.254V354H447.964C447.624 354 447.344 353.9 447.124 353.7C446.914 353.5 446.809 353.24 446.809 352.92H446.539ZM444.859 352.41C445.409 352.41 445.849 352.23 446.179 351.87C446.509 351.5 446.674 351 446.674 350.37V350.19C446.674 349.56 446.509 349.065 446.179 348.705C445.849 348.335 445.409 348.15 444.859 348.15C444.309 348.15 443.869 348.335 443.539 348.705C443.209 349.065 443.044 349.56 443.044 350.19V350.37C443.044 351 443.209 351.5 443.539 351.87C443.869 352.23 444.309 352.41 444.859 352.41ZM450.698 346.56H452.903V343.5H454.793V346.56H457.478V348.36H454.793V351.75C454.793 352.05 454.928 352.2 455.198 352.2H457.208V354H454.058C453.718 354 453.438 353.89 453.218 353.67C453.008 353.45 452.903 353.17 452.903 352.83V348.36H450.698V346.56ZM460.228 352.2H462.748V348.36H460.408V346.56H464.638V352.2H466.798V354H460.228V352.2ZM465.103 344.355C465.103 344.555 465.063 344.745 464.983 344.925C464.913 345.095 464.813 345.245 464.683 345.375C464.553 345.495 464.398 345.595 464.218 345.675C464.048 345.745 463.868 345.78 463.678 345.78C463.478 345.78 463.293 345.745 463.123 345.675C462.953 345.595 462.803 345.495 462.673 345.375C462.543 345.245 462.438 345.095 462.358 344.925C462.288 344.745 462.253 344.555 462.253 344.355C462.253 344.155 462.288 343.97 462.358 343.8C462.438 343.62 462.543 343.47 462.673 343.35C462.803 343.22 462.953 343.12 463.123 343.05C463.293 342.97 463.478 342.93 463.678 342.93C463.868 342.93 464.048 342.97 464.218 343.05C464.398 343.12 464.553 343.22 464.683 343.35C464.813 343.47 464.913 343.62 464.983 343.8C465.063 343.97 465.103 344.155 465.103 344.355ZM476.567 350.37C476.567 350.99 476.462 351.54 476.252 352.02C476.042 352.49 475.757 352.89 475.397 353.22C475.037 353.54 474.622 353.785 474.152 353.955C473.692 354.125 473.207 354.21 472.697 354.21C472.187 354.21 471.697 354.125 471.227 353.955C470.767 353.785 470.357 353.54 469.997 353.22C469.637 352.89 469.352 352.49 469.142 352.02C468.932 351.54 468.827 350.99 468.827 350.37V350.19C468.827 349.58 468.932 349.04 469.142 348.57C469.352 348.09 469.637 347.685 469.997 347.355C470.357 347.025 470.767 346.775 471.227 346.605C471.697 346.435 472.187 346.35 472.697 346.35C473.207 346.35 473.692 346.435 474.152 346.605C474.622 346.775 475.037 347.025 475.397 347.355C475.757 347.685 476.042 348.09 476.252 348.57C476.462 349.04 476.567 349.58 476.567 350.19V350.37ZM472.697 352.41C472.967 352.41 473.222 352.365 473.462 352.275C473.702 352.185 473.912 352.055 474.092 351.885C474.272 351.715 474.412 351.51 474.512 351.27C474.622 351.02 474.677 350.74 474.677 350.43V350.13C474.677 349.82 474.622 349.545 474.512 349.305C474.412 349.055 474.272 348.845 474.092 348.675C473.912 348.505 473.702 348.375 473.462 348.285C473.222 348.195 472.967 348.15 472.697 348.15C472.427 348.15 472.172 348.195 471.932 348.285C471.692 348.375 471.482 348.505 471.302 348.675C471.122 348.845 470.977 349.055 470.867 349.305C470.767 349.545 470.717 349.82 470.717 350.13V350.43C470.717 350.74 470.767 351.02 470.867 351.27C470.977 351.51 471.122 351.715 471.302 351.885C471.482 352.055 471.692 352.185 471.932 352.275C472.172 352.365 472.427 352.41 472.697 352.41ZM480.352 354H478.462V346.56H480.352V347.67H480.622C480.792 347.25 481.067 346.925 481.447 346.695C481.827 346.465 482.272 346.35 482.782 346.35C483.142 346.35 483.477 346.41 483.787 346.53C484.107 346.64 484.387 346.815 484.627 347.055C484.867 347.295 485.052 347.6 485.182 347.97C485.322 348.34 485.392 348.78 485.392 349.29V354H483.502V349.77C483.502 349.24 483.372 348.825 483.112 348.525C482.862 348.215 482.497 348.06 482.017 348.06C481.457 348.06 481.037 348.25 480.757 348.63C480.487 349 480.352 349.5 480.352 350.13V354Z" fill="#939CAA"/>
<path d="M523.62 352.41C524 352.41 524.31 352.355 524.55 352.245C524.8 352.125 524.99 351.97 525.12 351.78C525.26 351.58 525.355 351.355 525.405 351.105C525.455 350.845 525.48 350.58 525.48 350.31V350.04H527.46V350.31C527.46 351.56 527.13 352.525 526.47 353.205C525.82 353.875 524.87 354.21 523.62 354.21C522.42 354.21 521.47 353.845 520.77 353.115C520.07 352.385 519.72 351.32 519.72 349.92V347.58C519.72 346.91 519.81 346.31 519.99 345.78C520.17 345.24 520.43 344.79 520.77 344.43C521.11 344.06 521.52 343.78 522 343.59C522.48 343.39 523.02 343.29 523.62 343.29C524.24 343.29 524.79 343.38 525.27 343.56C525.75 343.74 526.15 344 526.47 344.34C526.8 344.68 527.045 345.09 527.205 345.57C527.375 346.05 527.46 346.59 527.46 347.19V347.46H525.48V347.19C525.48 346.94 525.45 346.69 525.39 346.44C525.33 346.19 525.23 345.965 525.09 345.765C524.95 345.565 524.76 345.405 524.52 345.285C524.28 345.155 523.98 345.09 523.62 345.09C523.29 345.09 523.005 345.155 522.765 345.285C522.525 345.405 522.325 345.575 522.165 345.795C522.005 346.005 521.885 346.255 521.805 346.545C521.735 346.825 521.7 347.12 521.7 347.43V350.07C521.7 350.41 521.735 350.725 521.805 351.015C521.875 351.295 521.985 351.54 522.135 351.75C522.285 351.96 522.48 352.125 522.72 352.245C522.97 352.355 523.27 352.41 523.62 352.41ZM534.17 352.92C533.97 353.39 533.69 353.725 533.33 353.925C532.97 354.115 532.55 354.21 532.07 354.21C531.62 354.21 531.195 354.125 530.795 353.955C530.405 353.785 530.06 353.535 529.76 353.205C529.46 352.875 529.22 352.475 529.04 352.005C528.87 351.535 528.785 351 528.785 350.4V350.16C528.785 349.57 528.87 349.04 529.04 348.57C529.21 348.1 529.44 347.7 529.73 347.37C530.02 347.04 530.355 346.79 530.735 346.62C531.125 346.44 531.54 346.35 531.98 346.35C532.51 346.35 532.935 346.44 533.255 346.62C533.585 346.8 533.845 347.08 534.035 347.46H534.305V346.56H536.195V351.75C536.195 352.05 536.33 352.2 536.6 352.2H536.885V354H535.595C535.255 354 534.975 353.9 534.755 353.7C534.545 353.5 534.44 353.24 534.44 352.92H534.17ZM532.49 352.41C533.04 352.41 533.48 352.23 533.81 351.87C534.14 351.5 534.305 351 534.305 350.37V350.19C534.305 349.56 534.14 349.065 533.81 348.705C533.48 348.335 533.04 348.15 532.49 348.15C531.94 348.15 531.5 348.335 531.17 348.705C530.84 349.065 530.675 349.56 530.675 350.19V350.37C530.675 351 530.84 351.5 531.17 351.87C531.5 352.23 531.94 352.41 532.49 352.41ZM538.179 346.56H541.329V347.64H541.599C541.739 347.23 541.974 346.915 542.304 346.695C542.644 346.465 543.049 346.35 543.519 346.35C544.259 346.35 544.854 346.585 545.304 347.055C545.754 347.515 545.979 348.22 545.979 349.17V349.5L544.029 349.68V349.47C544.029 349.06 543.924 348.735 543.714 348.495C543.504 348.245 543.189 348.12 542.769 348.12C542.349 348.12 542.019 348.265 541.779 348.555C541.539 348.845 541.419 349.26 541.419 349.8V352.2H543.129V354H537.999V352.2H539.529V348.36H538.179V346.56ZM549.389 350.895C549.399 351.115 549.449 351.32 549.539 351.51C549.639 351.69 549.769 351.85 549.929 351.99C550.099 352.12 550.289 352.225 550.499 352.305C550.719 352.375 550.949 352.41 551.189 352.41C551.659 352.41 552.019 352.33 552.269 352.17C552.519 352 552.699 351.8 552.809 351.57L554.429 352.47C554.339 352.66 554.214 352.86 554.054 353.07C553.894 353.27 553.684 353.455 553.424 353.625C553.174 353.795 552.864 353.935 552.494 354.045C552.134 354.155 551.709 354.21 551.219 354.21C550.659 354.21 550.149 354.12 549.689 353.94C549.229 353.76 548.829 353.5 548.489 353.16C548.159 352.82 547.899 352.405 547.709 351.915C547.529 351.425 547.439 350.87 547.439 350.25V350.16C547.439 349.59 547.534 349.07 547.724 348.6C547.924 348.13 548.194 347.73 548.534 347.4C548.874 347.07 549.269 346.815 549.719 346.635C550.179 346.445 550.669 346.35 551.189 346.35C551.829 346.35 552.379 346.465 552.839 346.695C553.299 346.915 553.679 347.2 553.979 347.55C554.279 347.89 554.499 348.27 554.639 348.69C554.779 349.1 554.849 349.5 554.849 349.89V350.895H549.389ZM551.174 348.06C550.694 348.06 550.304 348.185 550.004 348.435C549.704 348.675 549.509 348.955 549.419 349.275H552.929C552.869 348.925 552.679 348.635 552.359 348.405C552.049 348.175 551.654 348.06 551.174 348.06ZM558.573 350.895C558.583 351.115 558.633 351.32 558.723 351.51C558.823 351.69 558.953 351.85 559.113 351.99C559.283 352.12 559.473 352.225 559.683 352.305C559.903 352.375 560.133 352.41 560.373 352.41C560.843 352.41 561.203 352.33 561.453 352.17C561.703 352 561.883 351.8 561.993 351.57L563.613 352.47C563.523 352.66 563.398 352.86 563.238 353.07C563.078 353.27 562.868 353.455 562.608 353.625C562.358 353.795 562.048 353.935 561.678 354.045C561.318 354.155 560.893 354.21 560.403 354.21C559.843 354.21 559.333 354.12 558.873 353.94C558.413 353.76 558.013 353.5 557.673 353.16C557.343 352.82 557.083 352.405 556.893 351.915C556.713 351.425 556.623 350.87 556.623 350.25V350.16C556.623 349.59 556.718 349.07 556.908 348.6C557.108 348.13 557.378 347.73 557.718 347.4C558.058 347.07 558.453 346.815 558.903 346.635C559.363 346.445 559.853 346.35 560.373 346.35C561.013 346.35 561.563 346.465 562.023 346.695C562.483 346.915 562.863 347.2 563.163 347.55C563.463 347.89 563.683 348.27 563.823 348.69C563.963 349.1 564.033 349.5 564.033 349.89V350.895H558.573ZM560.358 348.06C559.878 348.06 559.488 348.185 559.188 348.435C558.888 348.675 558.693 348.955 558.603 349.275H562.113C562.053 348.925 561.863 348.635 561.543 348.405C561.233 348.175 560.838 348.06 560.358 348.06ZM565.733 346.56H568.883V347.64H569.153C569.293 347.23 569.528 346.915 569.858 346.695C570.198 346.465 570.603 346.35 571.073 346.35C571.813 346.35 572.408 346.585 572.858 347.055C573.308 347.515 573.533 348.22 573.533 349.17V349.5L571.583 349.68V349.47C571.583 349.06 571.478 348.735 571.268 348.495C571.058 348.245 570.743 348.12 570.323 348.12C569.903 348.12 569.573 348.265 569.333 348.555C569.093 348.845 568.973 349.26 568.973 349.8V352.2H570.683V354H565.553V352.2H567.083V348.36H565.733V346.56ZM577.647 348.66C577.647 348.9 577.772 349.075 578.022 349.185C578.272 349.285 578.727 349.37 579.387 349.44C580.147 349.52 580.767 349.75 581.247 350.13C581.727 350.5 581.967 351.02 581.967 351.69V351.78C581.967 352.52 581.697 353.11 581.157 353.55C580.617 353.99 579.857 354.21 578.877 354.21C578.297 354.21 577.802 354.135 577.392 353.985C576.982 353.835 576.642 353.65 576.372 353.43C576.102 353.2 575.892 352.95 575.742 352.68C575.602 352.4 575.507 352.13 575.457 351.87L577.197 351.3C577.277 351.62 577.442 351.9 577.692 352.14C577.952 352.38 578.347 352.5 578.877 352.5C579.347 352.5 579.667 352.43 579.837 352.29C580.017 352.14 580.107 351.98 580.107 351.81C580.107 351.71 580.082 351.62 580.032 351.54C579.992 351.45 579.912 351.37 579.792 351.3C579.672 351.22 579.507 351.155 579.297 351.105C579.097 351.055 578.842 351.015 578.532 350.985C577.692 350.915 577.022 350.7 576.522 350.34C576.032 349.97 575.787 349.43 575.787 348.72V348.63C575.787 348.26 575.867 347.935 576.027 347.655C576.187 347.375 576.397 347.14 576.657 346.95C576.917 346.75 577.217 346.6 577.557 346.5C577.897 346.4 578.247 346.35 578.607 346.35C579.077 346.35 579.482 346.41 579.822 346.53C580.172 346.64 580.467 346.79 580.707 346.98C580.947 347.16 581.142 347.365 581.292 347.595C581.442 347.815 581.557 348.03 581.637 348.24L579.927 348.93C579.837 348.66 579.682 348.45 579.462 348.3C579.242 348.14 578.957 348.06 578.607 348.06C578.287 348.06 578.047 348.12 577.887 348.24C577.727 348.35 577.647 348.49 577.647 348.66Z" fill="#939CAA"/>
</g>
<path fill-rule="evenodd" clip-rule="evenodd" d="M275.697 358.2V363H267.297C266.39 363 265.65 362.707 265.077 362.12C264.504 361.533 264.217 360.787 264.217 359.88V347.96H258.337V343.16H264.217V335H269.257V343.16H276.417V347.96H269.257V357C269.257 357.8 269.617 358.2 270.337 358.2H275.697ZM177.72 363.56C180.333 363.56 182.36 362.973 183.8 361.8C185.24 360.627 185.96 359.053 185.96 357.08V356.84C185.96 355.053 185.32 353.66 184.04 352.66C182.76 351.66 181.107 351.053 179.08 350.84C177.32 350.653 176.107 350.42 175.44 350.14C174.773 349.86 174.44 349.4 174.44 348.76C174.44 348.307 174.653 347.927 175.08 347.62C175.507 347.313 176.147 347.16 177 347.16C177.933 347.16 178.693 347.367 179.28 347.78C179.867 348.193 180.28 348.76 180.52 349.48L185.08 347.64C184.867 347.08 184.56 346.5 184.16 345.9C183.76 345.3 183.24 344.753 182.6 344.26C181.96 343.767 181.18 343.367 180.26 343.06C179.34 342.753 178.253 342.6 177 342.6C176.04 342.6 175.107 342.733 174.2 343C173.293 343.267 172.493 343.66 171.8 344.18C171.107 344.7 170.547 345.333 170.12 346.08C169.693 346.827 169.48 347.693 169.48 348.68V348.92C169.48 350.813 170.14 352.247 171.46 353.22C172.78 354.193 174.56 354.773 176.8 354.96C177.627 355.04 178.313 355.147 178.86 355.28C179.407 355.413 179.84 355.58 180.16 355.78C180.48 355.98 180.7 356.193 180.82 356.42C180.94 356.647 181 356.893 181 357.16C181 357.613 180.767 358.033 180.3 358.42C179.833 358.807 178.973 359 177.72 359C176.307 359 175.26 358.68 174.58 358.04C173.9 357.4 173.453 356.653 173.24 355.8L168.6 357.32C168.733 358.013 168.993 358.727 169.38 359.46C169.767 360.193 170.32 360.86 171.04 361.46C171.76 362.06 172.667 362.56 173.76 362.96C174.853 363.36 176.173 363.56 177.72 363.56ZM200.174 363.56C203.001 363.56 205.261 362.84 206.954 361.4C208.648 359.96 209.721 358.067 210.174 355.72L205.214 354.48C204.974 355.787 204.448 356.827 203.634 357.6C202.821 358.373 201.641 358.76 200.094 358.76C199.374 358.76 198.694 358.647 198.054 358.42C197.414 358.193 196.854 357.853 196.374 357.4C195.894 356.947 195.514 356.38 195.234 355.7C194.954 355.02 194.814 354.24 194.814 353.36V353.12C194.814 352.24 194.954 351.447 195.234 350.74C195.514 350.033 195.894 349.433 196.374 348.94C196.854 348.447 197.414 348.067 198.054 347.8C198.694 347.533 199.374 347.4 200.094 347.4C201.641 347.4 202.841 347.827 203.694 348.68C204.548 349.533 205.054 350.547 205.214 351.72L210.174 350.44C209.721 348.093 208.634 346.2 206.914 344.76C205.194 343.32 202.948 342.6 200.174 342.6C198.734 342.6 197.381 342.84 196.114 343.32C194.848 343.8 193.741 344.493 192.794 345.4C191.848 346.307 191.108 347.4 190.574 348.68C190.041 349.96 189.774 351.4 189.774 353V353.48C189.774 355.08 190.041 356.507 190.574 357.76C191.108 359.013 191.841 360.067 192.774 360.92C193.708 361.773 194.808 362.427 196.074 362.88C197.341 363.333 198.708 363.56 200.174 363.56ZM226.529 362.88C225.289 363.333 223.989 363.56 222.629 363.56C221.269 363.56 219.969 363.333 218.729 362.88C217.489 362.427 216.389 361.767 215.429 360.9C214.469 360.033 213.709 358.967 213.149 357.7C212.589 356.433 212.309 354.973 212.309 353.32V352.84C212.309 351.213 212.589 349.767 213.149 348.5C213.709 347.233 214.469 346.16 215.429 345.28C216.389 344.4 217.489 343.733 218.729 343.28C219.969 342.827 221.269 342.6 222.629 342.6C223.989 342.6 225.289 342.827 226.529 343.28C227.769 343.733 228.869 344.4 229.829 345.28C230.789 346.16 231.549 347.233 232.109 348.5C232.669 349.767 232.949 351.213 232.949 352.84V353.32C232.949 354.973 232.669 356.433 232.109 357.7C231.549 358.967 230.789 360.033 229.829 360.9C228.869 361.767 227.769 362.427 226.529 362.88ZM222.629 358.76C221.909 358.76 221.229 358.64 220.589 358.4C219.949 358.16 219.389 357.813 218.909 357.36C218.429 356.907 218.049 356.353 217.769 355.7C217.489 355.047 217.349 354.307 217.349 353.48V352.68C217.349 351.853 217.489 351.113 217.769 350.46C218.049 349.807 218.429 349.253 218.909 348.8C219.389 348.347 219.949 348 220.589 347.76C221.229 347.52 221.909 347.4 222.629 347.4C223.349 347.4 224.029 347.52 224.669 347.76C225.309 348 225.869 348.347 226.349 348.8C226.829 349.253 227.209 349.807 227.489 350.46C227.769 351.113 227.909 351.853 227.909 352.68V353.48C227.909 354.307 227.769 355.047 227.489 355.7C227.209 356.353 226.829 356.907 226.349 357.36C225.869 357.813 225.309 358.16 224.669 358.4C224.029 358.64 223.349 358.76 222.629 358.76ZM249.223 362.88C247.983 363.333 246.683 363.56 245.323 363.56C243.963 363.56 242.663 363.333 241.423 362.88C240.183 362.427 239.083 361.767 238.123 360.9C237.163 360.033 236.403 358.967 235.843 357.7C235.283 356.433 235.003 354.973 235.003 353.32V352.84C235.003 351.213 235.283 349.767 235.843 348.5C236.403 347.233 237.163 346.16 238.123 345.28C239.083 344.4 240.183 343.733 241.423 343.28C242.663 342.827 243.963 342.6 245.323 342.6C246.683 342.6 247.983 342.827 249.223 343.28C250.463 343.733 251.563 344.4 252.523 345.28C253.483 346.16 254.243 347.233 254.803 348.5C255.363 349.767 255.643 351.213 255.643 352.84V353.32C255.643 354.973 255.363 356.433 254.803 357.7C254.243 358.967 253.483 360.033 252.523 360.9C251.563 361.767 250.463 362.427 249.223 362.88ZM245.323 358.76C244.603 358.76 243.923 358.64 243.283 358.4C242.643 358.16 242.083 357.813 241.603 357.36C241.123 356.907 240.743 356.353 240.463 355.7C240.183 355.047 240.043 354.307 240.043 353.48V352.68C240.043 351.853 240.183 351.113 240.463 350.46C240.743 349.807 241.123 349.253 241.603 348.8C242.083 348.347 242.643 348 243.283 347.76C243.923 347.52 244.603 347.4 245.323 347.4C246.043 347.4 246.723 347.52 247.363 347.76C248.003 348 248.563 348.347 249.043 348.8C249.523 349.253 249.903 349.807 250.183 350.46C250.463 351.113 250.603 351.853 250.603 352.68V353.48C250.603 354.307 250.463 355.047 250.183 355.7C249.903 356.353 249.523 356.907 249.043 357.36C248.563 357.813 248.003 358.16 247.363 358.4C246.723 358.64 246.043 358.76 245.323 358.76Z" fill="white"/>
<path d="M1177.67 336H1156.33C1155.59 336 1155 336.593 1155 337.325V358.676C1155 359.407 1155.59 360 1156.33 360H1167.82V350.706H1164.69V347.084H1167.82V344.413C1167.82 341.313 1169.71 339.625 1172.48 339.625C1173.8 339.625 1174.94 339.724 1175.27 339.768V343.008L1173.36 343.009C1171.85 343.009 1171.56 343.724 1171.56 344.772V347.085H1175.15L1174.68 350.707H1171.56V360H1177.68C1178.41 360 1179 359.407 1179 358.675V337.325C1179 336.593 1178.41 336 1177.67 336Z" fill="#FCB72B"/>
<path fill-rule="evenodd" clip-rule="evenodd" d="M1263 336C1259.74 336 1259.33 336.014 1258.05 336.072C1253.7 336.272 1251.27 338.69 1251.07 343.052C1251.01 344.333 1251 344.741 1251 348C1251 351.259 1251.01 351.668 1251.07 352.948C1251.27 357.306 1253.69 359.728 1258.05 359.928C1259.33 359.986 1259.74 360 1263 360C1266.26 360 1266.67 359.986 1267.95 359.928C1272.3 359.728 1274.73 357.31 1274.93 352.948C1274.99 351.668 1275 351.259 1275 348C1275 344.741 1274.99 344.333 1274.93 343.053C1274.73 338.699 1272.31 336.273 1267.95 336.073C1266.67 336.014 1266.26 336 1263 336ZM1263 338.163C1266.2 338.163 1266.58 338.175 1267.85 338.233C1271.1 338.381 1272.62 339.924 1272.77 343.152C1272.83 344.417 1272.84 344.797 1272.84 348.001C1272.84 351.206 1272.83 351.585 1272.77 352.85C1272.62 356.075 1271.1 357.621 1267.85 357.769C1266.58 357.827 1266.21 357.839 1263 357.839C1259.8 357.839 1259.42 357.827 1258.15 357.769C1254.89 357.62 1253.38 356.07 1253.23 352.849C1253.17 351.584 1253.16 351.205 1253.16 348C1253.16 344.796 1253.17 344.417 1253.23 343.151C1253.38 339.924 1254.9 338.38 1258.15 338.232C1259.42 338.175 1259.8 338.163 1263 338.163ZM1256.84 348C1256.84 344.597 1259.6 341.838 1263 341.838C1266.4 341.838 1269.16 344.597 1269.16 348C1269.16 351.404 1266.4 354.163 1263 354.163C1259.6 354.163 1256.84 351.403 1256.84 348ZM1263 352C1260.79 352 1259 350.21 1259 348C1259 345.791 1260.79 344 1263 344C1265.21 344 1267 345.791 1267 348C1267 350.21 1265.21 352 1263 352ZM1267.97 341.595C1267.97 340.8 1268.61 340.155 1269.41 340.155C1270.2 340.155 1270.85 340.8 1270.85 341.595C1270.85 342.39 1270.2 343.035 1269.41 343.035C1268.61 343.035 1267.97 342.39 1267.97 341.595Z" fill="#FCB72B"/>
<path d="M1227 340.557C1226.12 340.949 1225.17 341.213 1224.17 341.332C1225.19 340.723 1225.97 339.758 1226.34 338.608C1225.39 339.172 1224.33 339.582 1223.21 339.803C1222.31 338.846 1221.03 338.248 1219.62 338.248C1216.44 338.248 1214.1 341.214 1214.82 344.293C1210.73 344.088 1207.1 342.128 1204.67 339.149C1203.38 341.362 1204 344.257 1206.19 345.723C1205.39 345.697 1204.63 345.476 1203.96 345.107C1203.91 347.388 1205.55 349.522 1207.91 349.997C1207.22 350.185 1206.46 350.229 1205.69 350.081C1206.32 352.037 1208.13 353.46 1210.29 353.5C1208.22 355.123 1205.61 355.848 1203 355.54C1205.18 356.937 1207.77 357.752 1210.55 357.752C1219.69 357.752 1224.85 350.031 1224.54 343.106C1225.5 342.411 1226.34 341.544 1227 340.557Z" fill="#FCB72B"/>
<defs>
<clipPath id="clip0_0_3535">
<rect width="91" height="39" fill="white" transform="translate(968 130)"/>
</clipPath>
<clipPath id="clip1_0_3535">
<rect width="114" height="39" fill="white" transform="translate(1145 130)"/>
</clipPath>
<clipPath id="clip2_0_3535">
<rect width="249" height="25" fill="white" transform="translate(335 336)"/>
</clipPath>
</defs>
</svg>
